<svg width="129" height="189" viewBox="0 0 129 189" version="1.1" xmlns="http://www.w3.org/2000/svg" xmlns:xlink="http://www.w3.org/1999/xlink">
<title>creativity</title>
<desc>Created using Figma</desc>
<g id="Canvas" transform="translate(-2618 -210)">
<g id="creativity">
<g id="Vector">
<use xlink:href="#path0_fill" transform="translate(2661.28 385.383)" fill="#64798A"/>
</g>
<g id="Vector">
<use xlink:href="#path1_fill" transform="translate(2644.34 357.644)" fill="#44C4A1"/>
</g>
<g id="Vector">
<use xlink:href="#path2_fill" transform="translate(2650.41 373.026)" fill="#3EA69B"/>
</g>
<g id="Vector">
<use xlink:href="#path3_fill" transform="translate(2618 210)" fill="#FCD462"/>
</g>
<g id="Vector">
<use xlink:href="#path4_fill" transform="translate(2665.07 276.696)" fill="#E56353"/>
</g>
<g id="Vector">
<use xlink:href="#path5_fill" transform="translate(2665.07 263.331)" fill="#E1E6E9"/>
</g>
<g id="Vector">
<use xlink:href="#path6_fill" transform="translate(2673.42 250.848)" fill="#64798A"/>
</g>
<g id="Vector">
<use xlink:href="#path7_fill" transform="translate(2676.71 276.696)" fill="#D15241"/>
</g>
</g>
</g>
<defs>
<path id="path0_fill" d="M 35.1467 13.6173L 7.33267 13.6173C 5.56257 13.6173 4.04558 12.6084 3.53978 10.8435L -1.92792e-06 1.97202e-06L 42.7325 1.97202e-06L 38.9396 10.8435C 38.4338 12.6088 36.9168 13.6173 35.1467 13.6173Z"/>
<path id="path1_fill" d="M 7.33267 -3.64824e-06L 68.7765 -3.64824e-06C 72.8221 -3.64824e-06 76.1091 3.27821 76.1091 7.31287L 76.1091 7.81732C 76.1091 11.852 72.8221 15.1302 68.7765 15.1302L 7.33267 15.1302C 3.28709 15.1302 -1.74221e-06 11.852 -1.74221e-06 7.81732L -1.74221e-06 7.31287C -0.000406705 3.27821 3.28709 -3.64824e-06 7.33267 -3.64824e-06Z"/>
<path id="path2_fill" d="M 7.33267 1.47902e-06L 56.8924 1.47902e-06C 60.938 1.47902e-06 64.2251 3.27822 64.2251 7.31288L 64.2251 7.81731C 64.2251 11.852 60.938 15.1302 56.8924 15.1302L 7.33267 15.1302C 3.28709 15.1302 -1.53245e-06 11.852 -1.53245e-06 7.81731L -1.53245e-06 7.31288C -1.53245e-06 3.27822 3.28709 1.47902e-06 7.33267 1.47902e-06Z"/>
<path id="path3_fill" d="M 129 64.1746C 129 27.3573 97.8988 -2.14701 60.4762 0.122741C 27.8581 2.14007 1.56099 28.8702 0.044003 61.4008C -0.714493 82.331 8.38827 100.992 23.054 113.348C 29.6282 118.896 33.421 127.218 33.421 136.044L 33.421 147.644L 95.6234 147.644L 95.6234 136.044C 95.6234 127.218 99.6689 118.896 106.243 113.096C 120.15 101.244 129 83.5919 129 64.1746Z"/>
<path id="path4_fill" d="M 35.1467 2.16923e-06L 0 2.16923e-06L 0 80.9473L 35.1467 80.9473L 35.1467 2.16923e-06Z"/>
<path id="path5_fill" d="M 2.96604e-07 13.3653L 8.34426 1.23251e-06L 26.5498 1.23251e-06L 34.894 13.3653L 2.96604e-07 13.3653Z"/>
<path id="path6_fill" d="M -1.43358e-06 12.4826L 7.33267 1.13468C 8.34426 -0.378223 10.367 -0.378223 11.3782 1.13468L 18.7109 12.4826L -1.43358e-06 12.4826Z"/>
<path id="path7_fill" d="M 11.6313 2.16923e-06L 0 2.16923e-06L 0 80.9473L 11.6313 80.9473L 11.6313 2.16923e-06Z"/>
</defs>
</svg>
