<svg width="212" height="152" viewBox="0 0 212 152" version="1.1" xmlns="http://www.w3.org/2000/svg" xmlns:xlink="http://www.w3.org/1999/xlink">
<title>diploma</title>
<desc>Created using Figma</desc>
<g id="Canvas" transform="translate(-1384 -821)">
<g id="diploma">
<g id="Group">
<g id="Group">
<g id="Group">
<g id="Vector">
<use xlink:href="#path0_fill" transform="translate(1384 821)" fill="#FFEBB7"/>
</g>
</g>
</g>
<g id="Group">
<g id="Group">
<g id="Vector">
<use xlink:href="#path1_fill" transform="translate(1397.26 850.78)" fill="#00C37A"/>
</g>
</g>
</g>
<g id="Group">
<g id="Group">
<g id="Vector">
<use xlink:href="#path2_fill" transform="translate(1397.25 863.955)" fill="#60DC4D"/>
</g>
</g>
</g>
<g id="Group">
<g id="Group">
<g id="Vector">
<use xlink:href="#path2_fill" transform="translate(1576.12 863.955)" fill="#60DC4D"/>
</g>
</g>
</g>
<g id="Group">
<g id="Group">
<g id="Vector">
<use xlink:href="#path3_fill" transform="translate(1427.06 953.174)" fill="#60DC4D"/>
</g>
</g>
</g>
<g id="Group">
<g id="Group">
<g id="Vector">
<use xlink:href="#path3_fill" transform="translate(1427.06 834.217)" fill="#60DC4D"/>
</g>
</g>
</g>
<g id="Group">
<g id="Group">
<g id="Vector">
<use xlink:href="#path4_fill" transform="translate(1413.82 834.258)" fill="#00C37A"/>
</g>
</g>
</g>
<g id="Group">
<g id="Group">
<g id="Vector">
<use xlink:href="#path5_fill" transform="translate(1397.25 834.217)" fill="#00A077"/>
</g>
</g>
</g>
<g id="Group">
<g id="Group">
<g id="Vector">
<use xlink:href="#path6_fill" transform="translate(1559.57 834.258)" fill="#00C37A"/>
</g>
</g>
</g>
<g id="Group">
<g id="Group">
<g id="Vector">
<use xlink:href="#path7_fill" transform="translate(1576.13 850.78)" fill="#00C37A"/>
</g>
</g>
</g>
<g id="Group">
<g id="Group">
<g id="Vector">
<use xlink:href="#path8_fill" transform="translate(1566.19 834.217)" fill="#00A077"/>
</g>
</g>
</g>
<g id="Group">
<g id="Group">
<g id="Vector">
<use xlink:href="#path9_fill" transform="translate(1576.13 936.693)" fill="#00C37A"/>
</g>
</g>
</g>
<g id="Group">
<g id="Group">
<g id="Vector">
<use xlink:href="#path10_fill" transform="translate(1559.57 953.215)" fill="#00C37A"/>
</g>
</g>
</g>
<g id="Group">
<g id="Group">
<g id="Vector">
<use xlink:href="#path11_fill" transform="translate(1566.19 943.261)" fill="#00A077"/>
</g>
</g>
</g>
<g id="Group">
<g id="Group">
<g id="Vector">
<use xlink:href="#path12_fill" transform="translate(1413.82 953.215)" fill="#00C37A"/>
</g>
</g>
</g>
<g id="Group">
<g id="Group">
<g id="Vector">
<use xlink:href="#path1_fill" transform="translate(1397.26 936.693)" fill="#00C37A"/>
</g>
</g>
</g>
<g id="Group">
<g id="Group">
<g id="Vector">
<use xlink:href="#path13_fill" transform="translate(1397.25 943.261)" fill="#00A077"/>
</g>
</g>
</g>
<g id="Group">
<g id="Group">
<g id="Vector">
<use xlink:href="#path14_fill" transform="translate(1460.19 854.043)" fill="#00A077"/>
</g>
</g>
</g>
<g id="Group">
<g id="Group">
<g id="Vector">
<use xlink:href="#path3_fill" transform="translate(1427.06 867.261)" fill="#00A077"/>
</g>
</g>
</g>
<g id="Group">
<g id="Group">
<g id="Vector">
<use xlink:href="#path15_fill" transform="translate(1427.06 890.391)" fill="#C9A07C"/>
</g>
</g>
</g>
<g id="Group">
<g id="Group">
<g id="Vector">
<use xlink:href="#path14_fill" transform="translate(1427.06 930.043)" fill="#C9A07C"/>
</g>
</g>
</g>
<g id="Group">
<g id="Group">
<g id="Vector">
<use xlink:href="#path16_fill" transform="translate(1427.06 916.826)" fill="#C9A07C"/>
</g>
</g>
</g>
<g id="Group">
<g id="Group">
<g id="Vector">
<use xlink:href="#path17_fill" transform="translate(1427.06 903.609)" fill="#C9A07C"/>
</g>
</g>
</g>
<g id="Group">
<g id="Group">
<g id="Vector">
<use xlink:href="#path18_fill" transform="translate(1480.06 903.609)" fill="#C9A07C"/>
</g>
</g>
</g>
<g id="Group">
<g id="Vector">
<use xlink:href="#path19_fill" transform="translate(1537.63 916.186)" fill="#E3001E"/>
</g>
</g>
<g id="Group">
<g id="Vector">
<use xlink:href="#path20_fill" transform="translate(1520.67 915.9)" fill="#FF4F19"/>
</g>
</g>
<g id="Group">
<g id="Vector">
<use xlink:href="#path21_fill" transform="translate(1523.03 887.087)" fill="#FFCD00"/>
</g>
</g>
<g id="Group">
<g id="Vector">
<use xlink:href="#path22_fill" transform="translate(1532.97 897)" fill="#FFE671"/>
</g>
</g>
</g>
</g>
</g>
<defs>
<path id="path0_fill" d="M 202.062 0L 9.9375 0C 4.4578 0 0 4.44683 0 9.91304L 0 142.087C 0 147.553 4.4578 152 9.9375 152L 202.062 152C 207.542 152 212 147.553 212 142.087L 212 9.91304C 212 4.44683 207.542 0 202.062 0Z"/>
<path id="path1_fill" d="M 3.3125 6.5677C 2.41647 6.5677 1.55605 6.20298 0.957726 5.60944C 0.330007 4.98161 -4.92811e-07 4.15553 -4.92811e-07 3.26335C -4.92811e-07 2.4034 0.330007 1.5451 0.957726 0.917269C 2.18376 -0.305752 4.40273 -0.305752 5.66437 0.917269C 6.2598 1.5451 6.625 2.4034 6.625 3.26335C 6.625 4.12166 6.25938 4.98161 5.66437 5.60944C 5.03376 6.20298 4.17334 6.5677 3.3125 6.5677Z"/>
<path id="path2_fill" d="M 3.3125 66.0886C 1.48152 66.0886 0 64.6091 0 62.7843L 0 3.30435C 0 1.47952 1.48152 9.07566e-07 3.3125 9.07566e-07C 5.14348 9.07566e-07 6.625 1.47952 6.625 3.30435L 6.625 62.7843C 6.625 64.6091 5.14348 66.0886 3.3125 66.0886Z"/>
<path id="path3_fill" d="M 122.562 6.6087L 3.3125 6.6087C 1.48152 6.6087 0 5.12917 0 3.30435C 0 1.47952 1.48152 0 3.3125 0L 122.562 0C 124.393 0 125.875 1.47952 125.875 3.30435C 125.875 5.12917 124.393 6.6087 122.562 6.6087Z"/>
<path id="path4_fill" d="M 3.3125 6.5677C 2.41647 6.5677 1.58834 6.20298 0.957726 5.60944C 0.330007 4.98161 1.08671e-06 4.12166 1.08671e-06 3.26335C 1.08671e-06 2.4034 0.330007 1.54509 0.957726 0.917266C 2.21937 -0.305756 4.40273 -0.305756 5.62876 0.917266C 6.25938 1.54509 6.625 2.4034 6.625 3.26335C 6.625 4.12166 6.25938 4.98161 5.66438 5.60944C 5.03376 6.20298 4.17334 6.5677 3.3125 6.5677Z"/>
<path id="path5_fill" d="M 13.2499 16.522C 12.4023 16.522 11.5547 16.1995 10.908 15.5539L 0.97046 5.64083C -0.323486 4.35007 -0.323486 2.25883 0.97046 0.968072C 2.26441 -0.322689 4.36039 -0.322689 5.65433 0.968072L 15.5918 10.8811C 16.8858 12.1719 16.8858 14.2631 15.5918 15.5539C 14.9451 16.1995 14.0975 16.522 13.2499 16.522Z"/>
<path id="path6_fill" d="M 3.31292 6.5677C 2.41689 6.5677 1.55646 6.20298 0.957723 5.60944C 0.330004 4.98161 1.31416e-06 4.12166 1.31416e-06 3.26335C 1.31416e-06 2.4034 0.330004 1.54509 0.957723 0.917266C 2.18376 -0.305756 4.40273 -0.305756 5.62876 0.917266C 6.25938 1.54509 6.625 2.4034 6.625 3.26335C 6.625 4.12166 6.25938 4.98161 5.66437 5.60944C 5.03417 6.20298 4.17334 6.5677 3.31292 6.5677Z"/>
<path id="path7_fill" d="M 3.31292 6.5677C 2.41689 6.5677 1.55646 6.20298 0.957723 5.60944C 0.330004 4.98161 1.31416e-06 4.12166 1.31416e-06 3.26335C 1.31416e-06 2.4034 0.330004 1.5451 0.957723 0.917269C 2.18376 -0.305752 4.43833 -0.305752 5.62876 0.917269C 6.25938 1.5451 6.625 2.4034 6.625 3.26335C 6.625 4.12166 6.25938 4.98161 5.62876 5.60944C 5.03417 6.20298 4.17334 6.5677 3.31292 6.5677Z"/>
<path id="path8_fill" d="M 3.3124 16.522C 2.46481 16.522 1.61722 16.1995 0.970456 15.5539C -0.323489 14.2631 -0.323489 12.1719 0.970456 10.8811L 10.908 0.968072C 12.2019 -0.322689 14.2983 -0.322689 15.5923 0.968072C 16.8862 2.25883 16.8862 4.35007 15.5923 5.64083L 5.65475 15.5539C 5.00757 16.1995 4.15998 16.522 3.3124 16.522Z"/>
<path id="path9_fill" d="M 3.31292 6.5677C 2.44918 6.5677 1.58875 6.20298 0.957723 5.60944C 0.330004 4.98161 1.31416e-06 4.12166 1.31416e-06 3.26335C 1.31416e-06 2.4034 0.330004 1.5451 0.957723 0.917269C 2.18376 -0.305752 4.40273 -0.305752 5.62876 0.917269C 6.25938 1.5451 6.625 2.4034 6.625 3.26335C 6.625 4.12166 6.25938 4.98161 5.62876 5.60944C 5.03417 6.20298 4.17334 6.5677 3.31292 6.5677Z"/>
<path id="path10_fill" d="M 3.31292 6.5677C 2.41689 6.5677 1.55646 6.20298 0.957723 5.60944C 0.330004 4.98161 1.31416e-06 4.15553 1.31416e-06 3.26335C 1.31416e-06 2.37118 0.330004 1.5451 0.957723 0.917269C 2.18376 -0.305752 4.40273 -0.305752 5.62876 0.917269C 6.25938 1.5451 6.625 2.4034 6.625 3.26335C 6.625 4.12166 6.25938 4.98161 5.62876 5.60944C 5.03417 6.20298 4.17334 6.5677 3.31292 6.5677Z"/>
<path id="path11_fill" d="M 13.2499 16.522C 12.4023 16.522 11.5547 16.1995 10.908 15.5539L 0.970456 5.64083C -0.323489 4.35007 -0.323489 2.25883 0.970456 0.968065C 2.2644 -0.322696 4.36081 -0.322696 5.65475 0.968065L 15.5923 10.8811C 16.8862 12.1719 16.8862 14.2627 15.5923 15.5535C 14.9451 16.1995 14.0975 16.522 13.2499 16.522Z"/>
<path id="path12_fill" d="M 3.3125 6.5677C 2.44877 6.5677 1.58834 6.20298 0.957726 5.60944C 0.330007 4.98161 1.08671e-06 4.12166 1.08671e-06 3.26335C 1.08671e-06 2.4034 0.330007 1.5451 0.957726 0.917269C 2.18376 -0.305752 4.40273 -0.305752 5.66438 0.917269C 6.2598 1.5451 6.625 2.4034 6.625 3.26335C 6.625 4.12166 6.25938 4.98161 5.66438 5.60944C 5.03376 6.20298 4.17334 6.5677 3.3125 6.5677Z"/>
<path id="path13_fill" d="M 3.3124 16.5216C 2.46481 16.5216 1.61723 16.199 0.97046 15.5535C -0.323486 14.2627 -0.323486 12.1719 0.97046 10.8811L 10.908 0.968068C 12.2019 -0.322693 14.2979 -0.322693 15.5918 0.968068C 16.8858 2.25883 16.8858 4.35008 15.5918 5.64084L 5.65433 15.5539C 5.00757 16.1991 4.15998 16.5216 3.3124 16.5216Z"/>
<path id="path14_fill" d="M 56.3125 6.6087L 3.3125 6.6087C 1.48152 6.6087 0 5.12917 0 3.30435C 0 1.47952 1.48152 0 3.3125 0L 56.3125 0C 58.1435 0 59.625 1.47952 59.625 3.30435C 59.625 5.12917 58.1435 6.6087 56.3125 6.6087Z"/>
<path id="path15_fill" d="M 76.1875 6.6087L 3.3125 6.6087C 1.48152 6.6087 0 5.12917 0 3.30435C 0 1.47952 1.48152 0 3.3125 0L 76.1875 0C 78.0185 0 79.5 1.47952 79.5 3.30435C 79.5 5.12917 78.0185 6.6087 76.1875 6.6087Z"/>
<path id="path16_fill" d="M 69.5625 6.6087L 3.3125 6.6087C 1.48152 6.6087 0 5.12917 0 3.30435C 0 1.47952 1.48152 0 3.3125 0L 69.5625 0C 71.3935 0 72.875 1.47952 72.875 3.30435C 72.875 5.12917 71.3935 6.6087 69.5625 6.6087Z"/>
<path id="path17_fill" d="M 43.0625 6.6087L 3.3125 6.6087C 1.48152 6.6087 0 5.12917 0 3.30435C 0 1.47952 1.48152 0 3.3125 0L 43.0625 0C 44.8935 0 46.375 1.47952 46.375 3.30435C 46.375 5.12917 44.8935 6.6087 43.0625 6.6087Z"/>
<path id="path18_fill" d="M 9.9375 6.6087L 3.3125 6.6087C 1.48152 6.6087 0 5.12917 0 3.30435C 0 1.47952 1.48152 0 3.3125 0L 9.9375 0C 11.7685 0 13.25 1.47952 13.25 3.30435C 13.25 5.12917 11.7685 6.6087 9.9375 6.6087Z"/>
<path id="path19_fill" d="M 12.7038 -4.63867e-06L 20.3156 18.3313C 20.8803 19.691 19.5148 21.0532 18.1517 20.4899L 13.19 18.4395L 11.1345 23.389C 10.5698 24.7487 8.639 24.7487 8.07422 23.389L -1.61743e-06 3.94415"/>
<path id="path20_fill" d="M 7.86172 -4.73951e-06L 0.130768 18.6179C -0.434013 19.9777 0.931558 21.3399 2.29465 20.7765L 7.25636 18.7261L 9.31178 23.6756C 9.87656 25.0354 11.8073 25.0354 12.3721 23.6756L 20.4463 4.23039"/>
<path id="path21_fill" d="M 16.5625 33.0435C 25.7097 33.0435 33.125 25.6464 33.125 16.5217C 33.125 7.39703 25.7097 0 16.5625 0C 7.41529 0 2.42615e-06 7.39703 2.42615e-06 16.5217C 2.42615e-06 25.6464 7.41529 33.0435 16.5625 33.0435Z"/>
<path id="path22_fill" d="M 6.625 0C 2.97297 0 2.42615e-06 2.964 2.42615e-06 6.6087C 2.42615e-06 10.2534 2.97297 13.2174 6.625 13.2174C 10.277 13.2174 13.25 10.2534 13.25 6.6087C 13.25 2.964 10.277 0 6.625 0Z"/>
</defs>
</svg>
