<svg width="186" height="186" viewBox="0 0 186 186" version="1.1" xmlns="http://www.w3.org/2000/svg" xmlns:xlink="http://www.w3.org/1999/xlink">
<title>blueprint</title>
<desc>Created using Figma</desc>
<g id="Canvas" transform="translate(125 -203)">
<g id="blueprint">
<g id="Vector">
<use xlink:href="#path0_fill" transform="translate(-125 203)" fill="#226BAC"/>
</g>
<g id="Vector">
<use xlink:href="#path1_fill" transform="translate(-125 225.842)" fill="#3083C9"/>
</g>
<g id="Vector">
<use xlink:href="#path2_fill" transform="translate(-72.7895 235.994)" fill="#7FABDA"/>
</g>
<g id="Vector">
<use xlink:href="#path3_stroke" transform="translate(8.78949 353.105)" fill="#EFCE4A"/>
</g>
<g id="Vector">
<use xlink:href="#path4_fill" transform="translate(-56.4737 287.842)" fill="#7FABDA"/>
</g>
<g id="Vector">
<use xlink:href="#path4_fill" transform="translate(-4.26316 287.842)" fill="#7FABDA"/>
</g>
<g id="Vector">
<use xlink:href="#path5_stroke" transform="translate(-20.579 353.105)" fill="#C6E2F7"/>
</g>
<g id="Vector">
<use xlink:href="#path6_stroke" transform="translate(-27.1053 362.895)" fill="#C6E2F7"/>
</g>
<g id="Vector">
<use xlink:href="#path7_stroke" transform="translate(-36.8947 372.684)" fill="#C6E2F7"/>
</g>
</g>
</g>
<defs>
<path id="path0_fill" d="M 19.5789 0C 8.76484 0 0 8.76484 0 19.5789L 0 166.421C 0 155.607 8.76484 146.842 19.5789 146.842C 30.393 146.842 39.1579 155.607 39.1579 166.421L 39.1579 19.5789C 39.1579 8.76484 30.393 0 19.5789 0Z"/>
<path id="path1_fill" d="M 39.1579 0L 39.1579 143.579C 39.1579 132.765 30.3931 124 19.5789 124C 8.76484 124 0 132.765 0 143.579L 0 143.775C 0 154.478 8.68 163.158 19.3832 163.158L 186 163.158L 186 0L 39.1579 0Z"/>
<path id="path2_fill" d="M 117.474 100.796L 107.684 100.796C 105.88 100.796 104.421 99.3369 104.421 97.5324C 104.421 95.7278 105.88 94.2692 107.684 94.2692L 110.947 94.2692L 110.947 92.2558C 110.947 90.4513 112.406 88.9927 114.211 88.9927C 116.015 88.9927 117.474 90.4513 117.474 92.2558L 117.474 100.796ZM 94.6316 100.796L 88.1053 100.796C 86.3007 100.796 84.8421 99.3369 84.8421 97.5324C 84.8421 95.7278 86.3007 94.2692 88.1053 94.2692L 94.6316 94.2692C 96.4361 94.2692 97.8947 95.7278 97.8947 97.5324C 97.8947 99.3369 96.4361 100.796 94.6316 100.796ZM 75.0526 100.796L 68.5263 100.796C 66.7218 100.796 65.2632 99.3369 65.2632 97.5324C 65.2632 95.7278 66.7218 94.2692 68.5263 94.2692L 75.0526 94.2692C 76.8572 94.2692 78.3158 95.7278 78.3158 97.5324C 78.3158 99.3369 76.8572 100.796 75.0526 100.796ZM 55.4737 100.796L 48.9474 100.796C 47.1428 100.796 45.6842 99.3369 45.6842 97.5324C 45.6842 95.7278 47.1428 94.2692 48.9474 94.2692L 55.4737 94.2692C 57.2782 94.2692 58.7368 95.7278 58.7368 97.5324C 58.7368 99.3369 57.2782 100.796 55.4737 100.796ZM 35.8947 100.796L 29.3684 100.796C 27.5639 100.796 26.1053 99.3369 26.1053 97.5324C 26.1053 95.7278 27.5639 94.2692 29.3684 94.2692L 35.8947 94.2692C 37.6993 94.2692 39.1579 95.7278 39.1579 97.5324C 39.1579 99.3369 37.6993 100.796 35.8947 100.796ZM 16.3158 100.796L 9.78947 100.796C 7.98495 100.796 6.52632 99.3369 6.52632 97.5324C 6.52632 95.7278 7.98495 94.2692 9.78947 94.2692L 16.3158 94.2692C 18.1203 94.2692 19.5789 95.7278 19.5789 97.5324C 19.5789 99.3369 18.1203 100.796 16.3158 100.796ZM 3.26316 94.2692C 1.45863 94.2692 0 92.8106 0 91.0061L 0 84.4797C 0 82.6752 1.45863 81.2166 3.26316 81.2166C 5.06768 81.2166 6.52632 82.6752 6.52632 84.4797L 6.52632 91.0061C 6.52632 92.8106 5.06768 94.2692 3.26316 94.2692ZM 114.211 82.4664C 112.406 82.4664 110.947 81.0077 110.947 79.2032L 110.947 72.6769C 110.947 70.8724 112.406 69.4137 114.211 69.4137C 116.015 69.4137 117.474 70.8724 117.474 72.6769L 117.474 79.2032C 117.474 81.0077 116.015 82.4664 114.211 82.4664ZM 3.26316 74.6903C 1.45863 74.6903 0 73.2316 0 71.4271L 0 64.9008C 0 63.0963 1.45863 61.6376 3.26316 61.6376C 5.06768 61.6376 6.52632 63.0963 6.52632 64.9008L 6.52632 71.4271C 6.52632 73.2316 5.06768 74.6903 3.26316 74.6903ZM 114.211 62.8874C 112.406 62.8874 110.947 61.4288 110.947 59.6243L 110.947 53.0979C 110.947 51.2934 112.406 49.8348 114.211 49.8348C 116.015 49.8348 117.474 51.2934 117.474 53.0979L 117.474 59.6243C 117.474 61.4288 116.015 62.8874 114.211 62.8874ZM 3.26316 55.1113C 1.45863 55.1113 0 53.6527 0 51.8482L 0 45.3218C 0 43.5173 1.45863 42.0587 3.26316 42.0587C 5.06768 42.0587 6.52632 43.5173 6.52632 45.3218L 6.52632 51.8482C 6.52632 53.6527 5.06768 55.1113 3.26316 55.1113ZM 112.563 44.1602C 111.913 44.1602 111.257 43.9644 110.686 43.563L 105.351 39.8006C 103.879 38.7629 103.524 36.7267 104.565 35.2517C 105.606 33.7801 107.639 33.4276 109.113 34.4653L 114.449 38.2277C 115.92 39.2654 116.276 41.3016 115.235 42.7766C 114.596 43.6772 113.591 44.1602 112.563 44.1602ZM 11.2644 39.6766C 10.2398 39.6766 9.23148 39.1969 8.59516 38.2963C 7.55748 36.8246 7.90663 34.7884 9.37832 33.7442L 14.7103 29.9817C 16.1885 28.9473 18.2215 29.2965 19.2624 30.7649C 20.3001 32.2366 19.9509 34.2728 18.4793 35.317L 13.1473 39.0794C 12.5729 39.4808 11.9138 39.6766 11.2644 39.6766ZM 96.5666 32.8696C 95.9173 32.8696 95.2614 32.6738 94.687 32.2725L 89.355 28.5101C 87.8834 27.4691 87.531 25.4329 88.5719 23.9579C 89.6128 22.4895 91.6425 22.1371 93.124 23.1748L 98.456 26.9372C 99.9277 27.9782 100.28 30.0144 99.2392 31.4893C 98.5996 32.3867 97.5913 32.8696 96.5666 32.8696ZM 27.2604 28.3861C 26.2358 28.3861 25.2275 27.9064 24.5912 27.0057C 23.5535 25.534 23.9026 23.4978 25.3743 22.4536L 30.7063 18.6912C 32.1845 17.66 34.2142 18.0092 35.2584 19.4744C 36.2961 20.9461 35.9469 22.9823 34.4753 24.0265L 29.1433 27.7889C 28.5657 28.1903 27.9098 28.3861 27.2604 28.3861ZM 80.5706 21.5791C 79.9213 21.5791 79.2654 21.3833 78.6911 20.9819L 73.359 17.2195C 71.8874 16.1786 71.535 14.1424 72.5759 12.6674C 73.6168 11.199 75.6465 10.8466 77.128 11.8843L 82.46 15.6467C 83.9317 16.6876 84.2841 18.7238 83.2431 20.1988C 82.6036 21.0962 81.5985 21.5791 80.5706 21.5791ZM 43.2564 17.0955C 42.2318 17.0955 41.2235 16.6158 40.5872 15.7152C 39.5495 14.2435 39.8986 12.2073 41.3703 11.1631L 46.7023 7.40068C 48.1838 6.363 50.2102 6.71868 51.2544 8.18384C 52.2921 9.65553 51.9429 11.6917 50.4713 12.7359L 45.1393 16.4984C 44.5617 16.8997 43.9058 17.0955 43.2564 17.0955ZM 64.5746 10.2886C 63.9253 10.2886 63.2694 10.0928 62.6951 9.69142L 57.363 5.929C 55.8914 4.88805 55.5389 2.85184 56.5799 1.37689C 57.6208 -0.0882653 59.6505 -0.440686 61.132 0.593736L 66.464 4.35616C 67.9357 5.3971 68.2881 7.43331 67.2472 8.90826C 66.6076 9.80563 65.6025 10.2886 64.5746 10.2886Z"/>
<path id="path3_stroke" d="M 0 0L 0 -1L -1 -1L -1 0L 0 0ZM 35.8947 0L 36.8947 0L 36.8947 -1L 35.8947 -1L 35.8947 0ZM 35.8947 19.5789L 35.8947 20.5789L 36.8947 20.5789L 36.8947 19.5789L 35.8947 19.5789ZM 0 19.5789L -1 19.5789L -1 20.5789L 0 20.5789L 0 19.5789ZM 0 1L 35.8947 1L 35.8947 -1L 0 -1L 0 1ZM 34.8947 0L 34.8947 19.5789L 36.8947 19.5789L 36.8947 0L 34.8947 0ZM 35.8947 18.5789L 0 18.5789L 0 20.5789L 35.8947 20.5789L 35.8947 18.5789ZM 1 19.5789L 1 0L -1 0L -1 19.5789L 1 19.5789Z"/>
<path id="path4_fill" d="M 29.3684 32.6316L 22.8421 32.6316C 21.0376 32.6316 19.5789 31.1729 19.5789 29.3684C 19.5789 27.5639 21.0376 26.1053 22.8421 26.1053L 26.1053 26.1053L 26.1053 22.8421C 26.1053 21.0376 27.5639 19.5789 29.3684 19.5789C 31.1729 19.5789 32.6316 21.0376 32.6316 22.8421L 32.6316 29.3684C 32.6316 31.1729 31.1729 32.6316 29.3684 32.6316ZM 9.78947 32.6316L 3.26316 32.6316C 1.45863 32.6316 0 31.1729 0 29.3684C 0 27.5639 1.45863 26.1053 3.26316 26.1053L 9.78947 26.1053C 11.594 26.1053 13.0526 27.5639 13.0526 29.3684C 13.0526 31.1729 11.594 32.6316 9.78947 32.6316ZM 3.26316 19.5789C 1.45863 19.5789 0 18.1203 0 16.3158L 0 9.78947C 0 7.98495 1.45863 6.52632 3.26316 6.52632C 5.06768 6.52632 6.52632 7.98495 6.52632 9.78947L 6.52632 16.3158C 6.52632 18.1203 5.06768 19.5789 3.26316 19.5789ZM 29.3684 13.0526C 27.5639 13.0526 26.1053 11.594 26.1053 9.78947L 26.1053 3.26316C 26.1053 1.45863 27.5639 0 29.3684 0C 31.1729 0 32.6316 1.45863 32.6316 3.26316L 32.6316 9.78947C 32.6316 11.594 31.1729 13.0526 29.3684 13.0526ZM 16.3158 6.52632L 9.78947 6.52632C 7.98495 6.52632 6.52632 5.06768 6.52632 3.26316C 6.52632 1.45863 7.98495 0 9.78947 0L 16.3158 0C 18.1203 0 19.5789 1.45863 19.5789 3.26316C 19.5789 5.06768 18.1203 6.52632 16.3158 6.52632Z"/>
<path id="path5_stroke" d="M 16.3158 1C 16.8681 1 17.3158 0.552285 17.3158 0C 17.3158 -0.552285 16.8681 -1 16.3158 -1L 16.3158 1ZM 0 -1C -0.552285 -1 -1 -0.552285 -1 0C -1 0.552285 -0.552285 1 0 1L 0 -1ZM 16.3158 -1L 0 -1L 0 1L 16.3158 1L 16.3158 -1Z"/>
<path id="path6_stroke" d="M 22.8421 1C 23.3944 1 23.8421 0.552285 23.8421 0C 23.8421 -0.552285 23.3944 -1 22.8421 -1L 22.8421 1ZM 0 -1C -0.552285 -1 -1 -0.552285 -1 0C -1 0.552285 -0.552285 1 0 1L 0 -1ZM 22.8421 -1L 0 -1L 0 1L 22.8421 1L 22.8421 -1Z"/>
<path id="path7_stroke" d="M 32.6316 1C 33.1839 1 33.6316 0.552285 33.6316 0C 33.6316 -0.552285 33.1839 -1 32.6316 -1L 32.6316 1ZM 0 -1C -0.552285 -1 -1 -0.552285 -1 0C -1 0.552285 -0.552285 1 0 1L 0 -1ZM 32.6316 -1L 0 -1L 0 1L 32.6316 1L 32.6316 -1Z"/>
</defs>
</svg>
