<svg width="207" height="207" viewBox="0 0 207 207" version="1.1" xmlns="http://www.w3.org/2000/svg" xmlns:xlink="http://www.w3.org/1999/xlink">
<title>cart</title>
<desc>Created using Figma</desc>
<g id="Canvas" transform="translate(-1384 -188)">
<g id="cart">
<g id="Vector">
<use xlink:href="#path0_fill" transform="translate(1471.66 213.47)" fill="#D6A246"/>
</g>
<g id="Vector">
<use xlink:href="#path1_fill" transform="translate(1489.75 213.47)" fill="#CE8A42"/>
</g>
<g id="Vector">
<use xlink:href="#path2_fill" transform="translate(1419.42 287)" fill="#A78966"/>
</g>
<g id="Group">
<g id="Vector">
<use xlink:href="#path3_fill" transform="translate(1415.5 327.5)" fill="#957856"/>
</g>
<g id="Vector">
<use xlink:href="#path4_fill" transform="translate(1489.75 287.001)" fill="#957856"/>
</g>
</g>
<g id="Vector">
<use xlink:href="#path5_fill" transform="translate(1489.75 327.5)" fill="#816952"/>
</g>
<g id="Vector">
<use xlink:href="#path6_fill" transform="translate(1429 341)" fill="#696B6F"/>
</g>
<g id="Vector">
<use xlink:href="#path7_fill" transform="translate(1449.25 341)" fill="#616267"/>
</g>
<g id="Vector">
<use xlink:href="#path8_fill" transform="translate(1442.5 354.5)" fill="#E7ECFD"/>
</g>
<g id="Vector">
<use xlink:href="#path9_fill" transform="translate(1449.25 354.5)" fill="#DAE0F0"/>
</g>
<g id="Vector">
<use xlink:href="#path10_fill" transform="translate(1510 341)" fill="#696B6F"/>
</g>
<g id="Vector">
<use xlink:href="#path11_fill" transform="translate(1530.25 341)" fill="#616267"/>
</g>
<g id="Vector">
<use xlink:href="#path12_fill" transform="translate(1523.5 354.5)" fill="#E7ECFD"/>
</g>
<g id="Vector">
<use xlink:href="#path13_fill" transform="translate(1530.25 354.5)" fill="#DAE0F0"/>
</g>
<g id="Vector">
<use xlink:href="#path14_fill" transform="translate(1384 381.5)" fill="#957856"/>
</g>
<g id="Vector">
<use xlink:href="#path15_fill" transform="translate(1489.75 381.5)" fill="#816952"/>
</g>
<g id="Vector">
<use xlink:href="#path16_fill" transform="translate(1429 230.337)" fill="#F5DC48"/>
</g>
<g id="Vector">
<use xlink:href="#path16_fill" transform="translate(1429 230.337)" fill="#FFE477"/>
</g>
<g id="Vector">
<use xlink:href="#path17_fill" transform="translate(1489.75 254.582)" fill="#EDBA43"/>
</g>
<g id="Vector">
<use xlink:href="#path18_fill" transform="translate(1415.5 260)" fill="#957856"/>
</g>
<g id="Vector">
<use xlink:href="#path19_fill" transform="translate(1489.75 260)" fill="#816952"/>
</g>
<g id="Vector">
<use xlink:href="#path20_fill" transform="translate(1402 260)" fill="#A78966"/>
</g>
<g id="Vector">
<use xlink:href="#path21_fill" transform="translate(1489.75 260)" fill="#957856"/>
</g>
<g id="Vector">
<use xlink:href="#path22_fill" transform="translate(1537 188)" fill="#FFE477"/>
</g>
<g id="Vector">
<use xlink:href="#path23_fill" transform="translate(1557.25 188)" fill="#FFB655"/>
</g>
<g id="Vector">
<use xlink:href="#path24_fill" transform="translate(1388.5 206)" fill="#FFE477"/>
</g>
<g id="Vector">
<use xlink:href="#path25_fill" transform="translate(1408.75 206)" fill="#FFB655"/>
</g>
</g>
</g>
<defs>
<path id="path0_fill" d="M 72.0896 60.03L 18.0898 60.03L -3.45468e-07 30.15L 17.2355 7.20012C 17.5052 6.8403 17.7753 6.48007 18.0902 6.16512C 21.4653 2.20504 26.3257 4.44174e-07 31.5901 4.44174e-07C 37.3052 4.44174e-07 42.5247 2.61014 45.9446 7.20012L 77.4898 49.23C 80.8192 53.6401 77.6697 60.03 72.0896 60.03Z"/>
<path id="path1_fill" d="M 53.9998 60.03L 9.87051e-07 60.03L 9.87051e-07 6.16512C 3.37506 2.20504 8.23551 4.44174e-07 13.4998 4.44174e-07C 19.215 4.44174e-07 24.4344 2.61014 27.8544 7.20012L 59.3996 49.23C 62.7294 53.6401 59.5799 60.03 53.9998 60.03Z"/>
<path id="path2_fill" d="M -1.06108e-06 -1.97411e-06L 2.69989 13.4999L 9.71443 48.5722C 10.3427 51.7278 13.1158 53.9995 16.3328 53.9995L 124.332 53.9995C 127.549 53.9995 130.322 51.7274 130.951 48.5722L 137.965 13.4999L 140.665 -1.97411e-06L -1.06108e-06 -1.97411e-06Z"/>
<path id="path3_fill" d="M 141.75 27.0002L 6.75013 27.0002C 3.02373 27.0002 8.14317e-07 23.9788 8.14317e-07 20.25C 8.14317e-07 9.08375 9.08373 -2.96116e-07 20.25 -2.96116e-07L 128.25 -2.96116e-07C 139.416 -2.96116e-07 148.5 9.08375 148.5 20.25C 148.5 23.9788 145.476 27.0002 141.75 27.0002Z"/>
<path id="path4_fill" d="M 9.87051e-07 53.9995L 53.9998 53.9995C 57.2164 53.9995 59.9899 51.7274 60.6181 48.5722L 67.6327 13.4999L 70.3326 8.88348e-07L 9.87051e-07 8.88348e-07L 9.87051e-07 53.9995Z"/>
<path id="path5_fill" d="M 53.9998 -2.96116e-07L 9.87051e-07 -2.96116e-07L 9.87051e-07 27.0002L 67.5001 27.0002C 71.2265 27.0002 74.2502 23.9788 74.2502 20.25C 74.2498 9.08375 65.1661 -2.96116e-07 53.9998 -2.96116e-07Z"/>
<path id="path6_fill" d="M 20.25 40.5C 9.08373 40.5 3.45468e-07 31.4163 3.45468e-07 20.25C 3.45468e-07 9.08374 9.08373 -9.87053e-07 20.25 -9.87053e-07C 31.4162 -9.87053e-07 40.5 9.08374 40.5 20.25C 40.5 31.4163 31.4162 40.5 20.25 40.5Z"/>
<path id="path7_fill" d="M 20.25 20.25C 20.25 9.08374 11.1663 -9.87053e-07 2.61569e-06 -9.87053e-07L 2.61569e-06 40.5C 11.1663 40.5 20.25 31.4163 20.25 20.25Z"/>
<path id="path8_fill" d="M 6.75013 -4.54044e-06C 3.02818 -4.54044e-06 2.96115e-06 3.02818 2.96115e-06 6.75014C 2.96115e-06 10.4721 3.02818 13.5003 6.75013 13.5003C 10.4721 13.5003 13.5003 10.4721 13.5003 6.75014C 13.5003 3.02818 10.4721 -4.54044e-06 6.75013 -4.54044e-06Z"/>
<path id="path9_fill" d="M 6.75013 6.75014C 6.75013 3.02818 3.72195 -4.54044e-06 2.61569e-06 -4.54044e-06L 2.61569e-06 13.4999C 3.72195 13.4999 6.75013 10.4721 6.75013 6.75014Z"/>
<path id="path10_fill" d="M 20.25 40.5C 9.08373 40.5 3.25727e-06 31.4163 3.25727e-06 20.25C 3.25727e-06 9.08374 9.08373 -9.87053e-07 20.25 -9.87053e-07C 31.4162 -9.87053e-07 40.5 9.08374 40.5 20.25C 40.5 31.4163 31.4162 40.5 20.25 40.5Z"/>
<path id="path11_fill" d="M 20.25 20.25C 20.25 9.08374 11.1663 -9.87053e-07 5.52749e-06 -9.87053e-07L 5.52749e-06 40.5C 11.1663 40.5 20.25 31.4163 20.25 20.25Z"/>
<path id="path12_fill" d="M 6.75013 -4.54044e-06C 3.02818 -4.54044e-06 -2.96115e-07 3.02818 -2.96115e-07 6.75014C -2.96115e-07 10.4721 3.02818 13.5003 6.75013 13.5003C 10.4721 13.5003 13.5003 10.4721 13.5003 6.75014C 13.5003 3.02818 10.4721 -4.54044e-06 6.75013 -4.54044e-06Z"/>
<path id="path13_fill" d="M 6.75013 6.75014C 6.75013 3.02818 3.72196 -4.54044e-06 5.52749e-06 -4.54044e-06L 5.52749e-06 13.4999C 3.72196 13.4999 6.75013 10.4721 6.75013 6.75014Z"/>
<path id="path14_fill" d="M 200.249 13.5003L 6.75013 13.5003C 3.02373 13.5003 0 10.479 0 6.75013C 0 3.02131 3.02373 6.90937e-07 6.75013 6.90937e-07L 200.25 6.90937e-07C 203.976 6.90937e-07 207 3.02131 207 6.75013C 207 10.479 203.976 13.5003 200.249 13.5003Z"/>
<path id="path15_fill" d="M 94.4998 3.55339e-06L 9.87051e-07 3.55339e-06L 9.87051e-07 13.4999L 94.4998 13.4999C 98.2262 13.4999 101.25 10.4786 101.25 6.74973C 101.25 3.0209 98.2262 3.55339e-06 94.4998 3.55339e-06Z"/>
<path id="path16_fill" d="M 60.7503 43.1627L 6.75049 43.1627C 4.26326 43.1627 1.97373 41.7918 0.800062 39.5989C -0.377653 37.4039 -0.245851 34.7408 1.13401 32.6688L 16.9016 9.01744C 20.6676 3.37022 26.9649 9.377e-07 33.7498 9.377e-07C 40.5347 9.377e-07 46.832 3.37062 50.598 9.01744L 66.3656 32.6688C 67.7454 34.7404 67.8772 37.4035 66.6995 39.5989C 65.5271 41.7918 63.2375 43.1627 60.7503 43.1627Z"/>
<path id="path17_fill" d="M 9.87051e-07 -9.87053e-07L 9.87051e-07 18.9183C 2.48723 18.9183 4.77675 17.5473 5.95043 15.3544C 7.12814 13.1595 6.99634 10.4964 5.61648 8.42433L 9.87051e-07 -9.87053e-07Z"/>
<path id="path18_fill" d="M 148.367 8.05521L 144.587 27.0002L 141.887 40.5L 6.61797 40.5L 3.91808 27.0002L 0.137912 8.05521C -0.267597 6.07537 0.228068 4.05024 1.53354 2.4751C 2.79292 0.899962 4.72829 0 6.753 0L 141.753 0C 145.982 0.000404297 149.222 3.87033 148.367 8.05521Z"/>
<path id="path19_fill" d="M 74.1148 8.0548L 70.3346 26.9998L 67.6347 40.4996L 9.87051e-07 40.4996L 9.87051e-07 2.27022e-06L 67.5001 2.27022e-06C 71.7294 2.27022e-06 74.9694 3.86993 74.1148 8.0548Z"/>
<path id="path20_fill" d="M 168.75 13.5003L 6.75013 13.5003C 3.02373 13.5003 -3.70144e-08 10.479 -3.70144e-08 6.75014C -3.70144e-08 3.02131 3.02373 -5.92232e-07 6.75013 -5.92232e-07L 168.75 -5.92232e-07C 172.476 -5.92232e-07 175.5 3.02131 175.5 6.75014C 175.5 10.479 172.476 13.5003 168.75 13.5003Z"/>
<path id="path21_fill" d="M 80.9999 2.27022e-06L 9.87051e-07 2.27022e-06L 9.87051e-07 13.4999L 80.9999 13.4999C 84.7263 13.4999 87.75 10.4786 87.75 6.74974C 87.75 3.02131 84.7263 2.27022e-06 80.9999 2.27022e-06Z"/>
<path id="path22_fill" d="M 33.7502 13.4999L 27.0001 13.4999L 27.0001 6.75014C 27.0001 3.02131 23.9768 0 20.2504 0C 16.524 0 13.5003 3.02131 13.5003 6.75014L 13.5003 13.5003L 6.75013 13.5003C 3.02373 13.5003 -3.8495e-06 16.5216 -3.8495e-06 20.2504C -3.8495e-06 23.9792 3.02373 27.0006 6.75013 27.0006L 13.5003 27.0006L 13.5003 33.7507C 13.5003 37.4795 16.524 40.5008 20.2504 40.5008C 23.9768 40.5008 27.0005 37.4795 27.0005 33.7507L 27.0005 27.0002L 33.7506 27.0002C 37.477 27.0002 40.5008 23.9788 40.5008 20.25C 40.5008 16.5212 37.4766 13.4999 33.7502 13.4999Z"/>
<path id="path23_fill" d="M 6.74973 33.7499L 6.74973 27.0002L 13.4998 27.0002C 17.2262 27.0002 20.25 23.9788 20.25 20.25C 20.25 16.5212 17.2262 13.4999 13.4998 13.4999L 6.74973 13.4999L 6.74973 6.75014C 6.74973 3.02131 3.7264 0 1.28317e-06 0L 1.28317e-06 40.5C 3.7264 40.5 6.74973 37.4787 6.74973 33.7499Z"/>
<path id="path24_fill" d="M 33.7502 13.5003L 27.0001 13.5003L 27.0001 6.75014C 27.0001 3.02131 23.9764 -3.70145e-08 20.25 -3.70145e-08C 16.5236 -3.70145e-08 13.4999 3.02131 13.4999 6.75014L 13.4999 13.5003L 6.75013 13.5003C 3.02373 13.5003 4.6268e-08 16.5216 4.6268e-08 20.2504C 4.6268e-08 23.9793 3.02373 27.0006 6.75013 27.0006L 13.5003 27.0006L 13.5003 33.7503C 13.5003 37.4791 16.524 40.5004 20.2504 40.5004C 23.9768 40.5004 27.0001 37.4791 27.0001 33.7503L 27.0001 27.0002L 33.7502 27.0002C 37.4766 27.0002 40.5004 23.9788 40.5004 20.25C 40.5004 16.5212 37.4766 13.5003 33.7502 13.5003Z"/>
<path id="path25_fill" d="M 6.75013 33.7503L 6.75013 27.0002L 13.5003 27.0002C 17.2267 27.0002 20.2504 23.9788 20.2504 20.25C 20.2504 16.5212 17.2267 13.4999 13.5003 13.4999L 6.75013 13.4999L 6.75013 6.75014C 6.75013 3.02131 3.7264 -3.70145e-08 -3.82482e-07 -3.70145e-08L -3.82482e-07 40.5C 3.7268 40.5004 6.75013 37.4791 6.75013 33.7503Z"/>
</defs>
</svg>
