<svg width="191" height="191" viewBox="0 0 191 191" version="1.1" xmlns="http://www.w3.org/2000/svg" xmlns:xlink="http://www.w3.org/1999/xlink">
<title>online-shop</title>
<desc>Created using Figma</desc>
<g id="Canvas" transform="translate(-2618 -1309)">
<g id="online-shop">
<g id="Vector">
<use xlink:href="#path0_fill" transform="translate(2618 1338.84)" fill="#40596B"/>
</g>
<g id="Vector">
<use xlink:href="#path1_fill" transform="translate(2629.94 1350.78)" fill="#FFFFFF"/>
</g>
<g id="Vector">
<use xlink:href="#path2_fill" transform="translate(2676.89 1473.34)" fill="#CDD6E0"/>
</g>
<g id="Vector">
<use xlink:href="#path3_fill" transform="translate(2655.01 1494.83)" fill="#F2F2F2"/>
</g>
<g id="Vector">
<use xlink:href="#path4_fill" transform="translate(2676.89 1473.34)" fill="#ACB3BA"/>
</g>
<g id="Vector">
<use xlink:href="#path5_fill" transform="translate(2643.86 1353.57)" fill="#F2F2F2"/>
</g>
<g id="Group">
<g id="Vector">
<use xlink:href="#path6_fill" transform="translate(2712.7 1381.82)" fill="#FFFFFF"/>
</g>
<g id="Vector">
<use xlink:href="#path7_fill" transform="translate(2712.7 1439.91)" fill="#FFFFFF"/>
</g>
<g id="Vector">
<use xlink:href="#path8_fill" transform="translate(2727.82 1391.77)" fill="#FFFFFF"/>
</g>
<g id="Vector">
<use xlink:href="#path9_fill" transform="translate(2686.84 1433.15)" fill="#FFFFFF"/>
</g>
<g id="Vector">
<use xlink:href="#path10_fill" transform="translate(2735.39 1417.63)" fill="#FFFFFF"/>
</g>
<g id="Vector">
<use xlink:href="#path11_fill" transform="translate(2677.29 1417.63)" fill="#FFFFFF"/>
</g>
<g id="Vector">
<use xlink:href="#path12_fill" transform="translate(2728.22 1433.15)" fill="#FFFFFF"/>
</g>
<g id="Vector">
<use xlink:href="#path13_fill" transform="translate(2686.84 1391.77)" fill="#FFFFFF"/>
</g>
<g id="Vector">
<use xlink:href="#path14_fill" transform="translate(2700.77 1389.78)" fill="#FFFFFF"/>
</g>
<g id="Vector">
<use xlink:href="#path15_fill" transform="translate(2720.66 1438.32)" fill="#FFFFFF"/>
</g>
<g id="Vector">
<use xlink:href="#path16_fill" transform="translate(2684.85 1405.69)" fill="#FFFFFF"/>
</g>
<g id="Vector">
<use xlink:href="#path17_fill" transform="translate(2733 1425.99)" fill="#FFFFFF"/>
</g>
<g id="Vector">
<use xlink:href="#path18_fill" transform="translate(2684.85 1425.59)" fill="#FFFFFF"/>
</g>
<g id="Vector">
<use xlink:href="#path19_fill" transform="translate(2733 1405.69)" fill="#FFFFFF"/>
</g>
<g id="Vector">
<use xlink:href="#path20_fill" transform="translate(2700.77 1437.93)" fill="#FFFFFF"/>
</g>
<g id="Vector">
<use xlink:href="#path21_fill" transform="translate(2721.06 1389.38)" fill="#FFFFFF"/>
</g>
</g>
<g id="Vector">
<use xlink:href="#path22_fill" transform="translate(2644.26 1309)" fill="#FFD15C"/>
</g>
<g id="Vector">
<use xlink:href="#path23_fill" transform="translate(2741.75 1413.25)" fill="#40596B"/>
</g>
<g id="Vector">
<use xlink:href="#path24_fill" transform="translate(2691.61 1318.55)" fill="#F8B64C"/>
</g>
<g id="Vector">
<use xlink:href="#path25_fill" transform="translate(2673.31 1318.55)" fill="#FF7058"/>
</g>
<g id="Vector">
<use xlink:href="#path26_fill" transform="translate(2655.01 1318.55)" fill="#F8B64C"/>
</g>
<g id="Vector">
<use xlink:href="#path27_fill" transform="translate(2644.26 1356.75)" fill="#E4EAEF"/>
</g>
<g id="Vector">
<use xlink:href="#path28_fill" transform="translate(2637.9 1337.65)" fill="#FF7058"/>
</g>
<g id="Vector">
<use xlink:href="#path29_fill" transform="translate(2668.14 1337.65)" fill="#CDD6E0"/>
</g>
<g id="Vector">
<use xlink:href="#path30_fill" transform="translate(2698.38 1337.65)" fill="#FF7058"/>
</g>
<g id="Vector">
<use xlink:href="#path31_fill" transform="translate(2727.43 1337.65)" fill="#CDD6E0"/>
</g>
<g id="Vector">
<use xlink:href="#path32_fill" transform="translate(2755.28 1337.65)" fill="#FF7058"/>
</g>
<g id="Group">
<g id="Vector">
<use xlink:href="#path33_fill" transform="translate(2668.14 1353.57)" fill="#ACB3BA"/>
</g>
<g id="Vector">
<use xlink:href="#path34_fill" transform="translate(2728.62 1353.57)" fill="#ACB3BA"/>
</g>
</g>
<g id="Group">
<g id="Vector">
<use xlink:href="#path35_fill" transform="translate(2637.9 1353.57)" fill="#F1543F"/>
</g>
<g id="Vector">
<use xlink:href="#path36_fill" transform="translate(2698.38 1353.57)" fill="#F1543F"/>
</g>
<g id="Vector">
<use xlink:href="#path37_fill" transform="translate(2758.86 1353.57)" fill="#F1543F"/>
</g>
</g>
<g id="Vector">
<use xlink:href="#path38_fill" transform="translate(2690.02 1394.55)" fill="#FF7058"/>
</g>
<g id="Group">
<g id="Vector">
<use xlink:href="#path39_fill" transform="translate(2697.58 1403.7)" fill="#FFFFFF"/>
</g>
<g id="Vector">
<use xlink:href="#path40_fill" transform="translate(2710.32 1429.57)" fill="#FFFFFF"/>
</g>
<g id="Vector">
<use xlink:href="#path41_fill" transform="translate(2720.66 1429.57)" fill="#FFFFFF"/>
</g>
</g>
</g>
</g>
<defs>
<path id="path0_fill" d="M 183.042 -1.2319e-06L 7.95835 -1.2319e-06C 3.58122 -1.2319e-06 0 3.58122 0 7.95835L 0 126.538C 0 130.915 3.58122 134.496 7.95835 134.496L 183.042 134.496C 187.419 134.496 191 130.915 191 126.538L 191 7.95835C 191 3.58122 187.419 -1.2319e-06 183.042 -1.2319e-06Z"/>
<path id="path1_fill" d="M 167.125 0L 0 0L 0 110.223L 167.125 110.223L 167.125 0Z"/>
<path id="path2_fill" d="M 72.8186 0L 0 0L 0 21.4877L 72.8186 21.4877L 72.8186 0Z"/>
<path id="path3_fill" d="M 116.988 3.99785e-06L 0 3.99785e-06L 0 5.17304L 116.988 5.17304L 116.988 3.99785e-06Z"/>
<path id="path4_fill" d="M 72.8186 0L 0 0L 0 5.96857L 72.8186 5.96857L 72.8186 0Z"/>
<path id="path5_fill" d="M 138.873 -2.55677e-07L 138.873 101.071C 138.873 104.652 136.087 107.437 132.506 107.437L 6.36653 107.437C 2.78531 107.437 -4.8811e-07 104.652 -4.8811e-07 101.071L -4.8811e-07 -2.55677e-07L 138.873 -2.55677e-07Z"/>
<path id="path6_fill" d="M 1.59182 1.30163e-06L 1.59182 15.1208C 1.19387 15.1208 1.19386 15.1208 0.795909 15.1208C 0.397953 15.1208 0.397955 15.1208 -9.29733e-07 15.1208L -9.29733e-07 1.30163e-06L 1.59182 1.30163e-06Z"/>
<path id="path7_fill" d="M 1.59182 -1.48757e-06L 1.59182 15.1208L -9.29733e-07 15.1208L -9.29733e-07 -1.48757e-06C 0.397955 -1.48757e-06 0.397953 -1.48757e-06 0.795909 -1.48757e-06C 1.19386 -1.48757e-06 1.19387 -1.48757e-06 1.59182 -1.48757e-06Z"/>
<path id="path8_fill" d="M 11.9375 1.19387L 1.19387 11.9375C 0.795914 11.5396 0.397955 11.1416 -6.50813e-07 10.7437L 10.7437 -9.7622e-07L 11.9375 1.19387Z"/>
<path id="path9_fill" d="M 11.9375 1.19387L 1.19386 11.9375L -6.50813e-07 10.7437L 10.7437 -1.67352e-06C 11.1416 0.397954 11.5396 0.795913 11.9375 1.19387Z"/>
<path id="path10_fill" d="M 14.7228 -4.36975e-06L 14.7228 1.59183L -1.85947e-06 1.59183C -1.85947e-06 1.19387 -1.85947e-06 1.19386 -1.85947e-06 0.795905C -1.85947e-06 0.39795 -1.85947e-06 0.397951 -1.85947e-06 -4.36975e-06L 14.7228 -4.36975e-06Z"/>
<path id="path11_fill" d="M 14.7228 0.795905C 14.7228 1.19386 14.7228 1.19387 14.7228 1.59183L 9.29733e-07 1.59183L 9.29733e-07 -4.36975e-06L 14.7228 -4.36975e-06C 14.7228 -4.36975e-06 14.7228 0.39795 14.7228 0.795905Z"/>
<path id="path12_fill" d="M 11.5396 10.3457L 10.3457 11.5396L 4.46272e-06 1.19387C 0.39796 0.795916 0.795908 0.397957 1.19386 1.02271e-06L 11.5396 10.3457Z"/>
<path id="path13_fill" d="M 11.9375 10.7437C 11.5396 11.1416 11.1416 11.5396 10.7437 11.9375L -6.50813e-07 1.19387L 1.19386 1.72001e-06L 11.9375 10.7437Z"/>
<path id="path14_fill" d="M 5.17304 8.35631C 4.77508 8.35631 4.37713 8.75426 3.58122 9.15222L -9.7622e-07 0.795909L 1.59182 -6.04327e-07L 5.17304 8.35631Z"/>
<path id="path15_fill" d="M 5.17304 8.35631L 3.58122 9.15222L 2.97515e-06 0.795914C 0.397959 0.795914 0.795911 0.39796 1.59182 3.99785e-06L 5.17304 8.35631Z"/>
<path id="path16_fill" d="M 9.15222 3.58122C 8.75426 3.97917 8.75426 4.37713 8.3563 5.17304L -2.7892e-07 1.59182L 0.795909 1.3946e-06L 9.15222 3.58122Z"/>
<path id="path17_fill" d="M 9.15221 3.58122L 8.3563 5.17304L 2.32433e-06 1.59182C 0.397958 1.19387 0.397957 0.795916 0.795912 4.64867e-06L 9.15221 3.58122Z"/>
<path id="path18_fill" d="M 9.15222 1.59182L 0.795909 5.17305L -2.7892e-07 3.58122L 8.3563 -4.64867e-07C 8.75426 0.795911 8.75426 1.19386 9.15222 1.59182Z"/>
<path id="path19_fill" d="M 9.15221 1.59182L 0.795912 5.17304C 0.795912 4.77508 0.397958 4.37713 2.32433e-06 3.58122L 8.3563 1.3946e-06L 9.15221 1.59182Z"/>
<path id="path20_fill" d="M 5.17304 0.795909L 1.59182 9.15221L -9.7622e-07 8.3563L 3.58122 -1.11568e-06C 4.37751 0.397954 4.77547 0.397953 5.17304 0.795909Z"/>
<path id="path21_fill" d="M 4.77508 0.79591L 1.59183 9.15222C 1.19387 8.75426 0.795907 8.75426 -3.53299e-06 8.3563L 3.58122 9.29733e-08L 4.77508 0.79591Z"/>
<path id="path22_fill" d="M 130.517 0L 7.95835 0C 3.58122 0 -9.7622e-07 3.58122 -9.7622e-07 7.95835L -9.7622e-07 28.6501L 138.873 28.6501L 138.873 7.95835C 138.475 3.58122 134.894 0 130.517 0Z"/>
<path id="path23_fill" d="M 4.83461e-06 1.85947e-07L 7.5604 27.0583L 14.3253 20.2938L 20.6918 27.0583L 26.6604 21.0897L 20.2938 14.3253L 26.6604 7.56039L 4.83461e-06 1.85947e-07Z"/>
<path id="path24_fill" d="M 4.77509 9.55017C 7.41229 9.55017 9.55017 7.41229 9.55017 4.77509C 9.55017 2.13788 7.41229 0 4.77509 0C 2.13788 0 0 2.13788 0 4.77509C 0 7.41229 2.13788 9.55017 4.77509 9.55017Z"/>
<path id="path25_fill" d="M 4.77508 9.55017C 7.41229 9.55017 9.55017 7.41229 9.55017 4.77509C 9.55017 2.13788 7.41229 0 4.77508 0C 2.13788 0 0 2.13788 0 4.77509C 0 7.41229 2.13788 9.55017 4.77508 9.55017Z"/>
<path id="path26_fill" d="M 4.77508 9.55017C 7.41229 9.55017 9.55017 7.41229 9.55017 4.77509C 9.55017 2.13788 7.41229 0 4.77508 0C 2.13788 0 0 2.13788 0 4.77509C 0 7.41229 2.13788 9.55017 4.77508 9.55017Z"/>
<path id="path27_fill" d="M 138.475 1.85947e-07L 138.475 18.702C 136.087 20.6914 132.904 21.4873 129.721 21.4873C 121.364 21.4873 114.6 14.7228 114.6 6.36653C 114.6 14.7228 107.835 21.4873 99.479 21.4873C 91.1227 21.4873 84.3582 14.7228 84.3582 6.36653C 84.3582 14.7228 77.5937 21.4873 69.2374 21.4873C 60.8811 21.4873 54.1166 14.7228 54.1166 6.36653C 54.1166 14.7228 47.3521 21.4873 38.9958 21.4873C 30.6395 21.4873 23.8751 14.7228 23.8751 6.36653C 23.8751 14.7228 17.1106 21.4873 8.75426 21.4873C 5.571 21.4873 2.38773 20.2934 -1.18462e-06 18.702L -1.18462e-06 1.85947e-07C -0.000382003 1.85947e-07 138.475 1.85947e-07 138.475 1.85947e-07Z"/>
<path id="path28_fill" d="M 30.2416 15.9167L -4.06758e-07 15.9167L 6.36653 6.50813e-07L 33.8228 6.50813e-07L 30.2416 15.9167Z"/>
<path id="path29_fill" d="M 30.2416 15.9167L -8.83246e-07 15.9167L 3.58122 6.50813e-07L 31.4354 6.50813e-07L 30.2416 15.9167Z"/>
<path id="path30_fill" d="M 30.242 15.9167L 9.29733e-08 15.9167L 1.19386 6.50813e-07L 29.0481 6.50813e-07L 30.242 15.9167Z"/>
<path id="path31_fill" d="M 31.4354 15.9167L 1.19386 15.9167L -5.76435e-06 6.50813e-07L 27.8542 6.50813e-07L 31.4354 15.9167Z"/>
<path id="path32_fill" d="M 33.8228 15.9167L 3.58122 15.9167L -3.71893e-06 6.50813e-07L 27.4563 6.50813e-07L 33.8228 15.9167Z"/>
<path id="path33_fill" d="M -8.83246e-07 6.76448C -8.83246e-07 15.1208 6.76448 21.8853 15.1208 21.8853C 23.4771 21.8853 30.2416 15.1208 30.2416 6.76448L 30.2416 -2.55677e-07L -8.83246e-07 -2.55677e-07L -8.83246e-07 6.76448Z"/>
<path id="path34_fill" d="M -2.04541e-06 -2.55677e-07L -2.04541e-06 6.76448C -2.04541e-06 15.1208 6.76448 21.8853 15.1208 21.8853C 23.4771 21.8853 30.2416 15.1208 30.2416 6.76448L 30.2416 -2.55677e-07L -2.04541e-06 -2.55677e-07Z"/>
<path id="path35_fill" d="M -4.06758e-07 6.76448C -4.06758e-07 15.1208 6.76448 21.8853 15.1208 21.8853C 23.4771 21.8853 30.2416 15.1208 30.2416 6.76448L 30.2416 -2.55677e-07L -4.06758e-07 -2.55677e-07L -4.06758e-07 6.76448Z"/>
<path id="path36_fill" d="M 9.29733e-08 6.76448C 9.29733e-08 15.1208 6.76448 21.8853 15.1208 21.8853C 23.4771 21.8853 30.2416 15.1208 30.2416 6.76448L 30.2416 -2.55677e-07L 9.29733e-08 -2.55677e-07L 9.29733e-08 6.76448Z"/>
<path id="path37_fill" d="M 4.74164e-06 -2.55677e-07L 4.74164e-06 6.76448C 4.74164e-06 15.1208 6.76448 21.8853 15.1208 21.8853C 23.4771 21.8853 30.2416 15.1208 30.2416 6.76448L 30.2416 -2.55677e-07L 4.74164e-06 -2.55677e-07Z"/>
<path id="path38_fill" d="M 23.4771 47.7501C 36.4431 47.7501 46.9542 37.0609 46.9542 23.875C 46.9542 10.6892 36.4431 0 23.4771 0C 10.5111 0 0 10.6892 0 23.875C 0 37.0609 10.5111 47.7501 23.4771 47.7501Z"/>
<path id="path39_fill" d="M 11.9375 21.8853L 11.1416 19.1L 29.4457 19.1L 29.4457 5.17304L 7.56039 5.17304L 6.36653 1.76649e-06L -1.62703e-06 1.76649e-06L -1.62703e-06 2.38735L 4.77508 2.38735L 10.3461 24.2726L 30.242 24.2726L 30.242 21.8853L 11.9375 21.8853ZM 27.0583 7.16243L 27.0583 16.3147L 10.7437 16.3147L 8.35631 7.16243L 27.0583 7.16243Z"/>
<path id="path40_fill" d="M 2.78531 5.57061C 4.32359 5.57061 5.57062 4.32359 5.57062 2.78531C 5.57062 1.24702 4.32359 0 2.78531 0C 1.24703 0 2.83569e-06 1.24702 2.83569e-06 2.78531C 2.83569e-06 4.32359 1.24703 5.57061 2.78531 5.57061Z"/>
<path id="path41_fill" d="M 2.78531 5.57061C 4.3236 5.57061 5.57062 4.32359 5.57062 2.78531C 5.57062 1.24702 4.3236 0 2.78531 0C 1.24703 0 5.67137e-06 1.24702 5.67137e-06 2.78531C 5.67137e-06 4.32359 1.24703 5.57061 2.78531 5.57061Z"/>
</defs>
</svg>
