<svg width="194" height="200" viewBox="0 0 194 200" version="1.1" xmlns="http://www.w3.org/2000/svg" xmlns:xlink="http://www.w3.org/1999/xlink">
<title>medicine</title>
<desc>Created using Figma</desc>
<g id="Canvas" transform="translate(-2610 -1830)">
<g id="medicine">
<g id="Vector">
<use xlink:href="#path0_fill" transform="translate(2622.81 1841.34)" fill="#2571A0"/>
</g>
<g id="Vector">
<use xlink:href="#path1_fill" transform="translate(2622.81 1841.34)" fill="#196084"/>
</g>
<g id="Vector">
<use xlink:href="#path2_fill" transform="translate(2635.05 1872.79)" fill="#BABABA"/>
</g>
<g id="Vector">
<use xlink:href="#path3_fill" transform="translate(2635.05 1882.67)" fill="#989DA0"/>
</g>
<g id="Vector">
<use xlink:href="#path4_fill" transform="translate(2610 1890.47)" fill="#EAE8E8"/>
</g>
<g id="Vector">
<use xlink:href="#path5_fill" transform="translate(2610 1890.47)" fill="#D6D4D4"/>
</g>
<g id="Vector">
<use xlink:href="#path6_fill" transform="translate(2622.81 1858.07)" fill="#4A94CC"/>
</g>
<g id="Vector">
<use xlink:href="#path7_fill" transform="translate(2622.81 1858.07)" fill="#2571A0"/>
</g>
<g id="Group">
<g id="Vector">
<use xlink:href="#path8_fill" transform="translate(2755.59 1981.49)" fill="#FFA92C"/>
</g>
<g id="Vector">
<use xlink:href="#path9_fill" transform="translate(2755.58 1984.74)" fill="#FFA92C"/>
</g>
</g>
<g id="Group">
<g id="Vector">
<use xlink:href="#path10_fill" transform="translate(2727.72 1965.25)" fill="#EA473B"/>
</g>
<g id="Vector">
<use xlink:href="#path11_fill" transform="translate(2727.72 1997.62)" fill="#EA473B"/>
</g>
</g>
<g id="Vector">
<use xlink:href="#path8_fill" transform="translate(2755.58 1981.49)" fill="#FFA92C"/>
</g>
<g id="Vector">
<use xlink:href="#path12_fill" transform="translate(2755.53 1981.47)" fill="#F49519"/>
</g>
<g id="Vector">
<use xlink:href="#path9_fill" transform="translate(2755.58 1984.74)" fill="#FF8828"/>
</g>
<g id="Vector">
<use xlink:href="#path13_fill" transform="translate(2755.6 1984.74)" fill="#EA6C18"/>
</g>
<g id="Vector">
<use xlink:href="#path14_fill" transform="translate(2727.72 1965.25)" fill="#8DD83D"/>
</g>
<g id="Vector">
<use xlink:href="#path15_fill" transform="translate(2727.72 1965.25)" fill="#5CCC2E"/>
</g>
<g id="Vector">
<use xlink:href="#path16_fill" transform="translate(2627.85 1922.15)" fill="#FFA92C"/>
</g>
<g id="Vector">
<use xlink:href="#path17_fill" transform="translate(2627.85 1922.15)" fill="#F49519"/>
</g>
<g id="Group">
<g id="Vector">
<use xlink:href="#path18_fill" transform="translate(2647.65 1938.98)" fill="#EAE8E8"/>
</g>
<g id="Vector">
<use xlink:href="#path19_fill" transform="translate(2635.05 1830)" fill="#EAE8E8"/>
</g>
</g>
<g id="Group">
<g id="Vector">
<use xlink:href="#path20_fill" transform="translate(2635.05 1830)" fill="#D6D4D4"/>
</g>
<g id="Vector">
<use xlink:href="#path21_fill" transform="translate(2647.65 1953.41)" fill="#D6D4D4"/>
</g>
</g>
<g id="Vector">
<use xlink:href="#path11_fill" transform="translate(2727.72 1997.62)" fill="#4A94CC"/>
</g>
<g id="Vector">
<use xlink:href="#path22_fill" transform="translate(2727.72 1997.62)" fill="#2571A0"/>
</g>
</g>
</g>
<defs>
<path id="path0_fill" d="M 84.11 0.805468L 79.8705 0.805468L 79.0666 1.54972e-07L 13.041 1.54972e-07L 12.2371 0.805468L 7.99637 0.805468C 3.58024 0.805468 -3.0935e-07 4.39218 -3.0935e-07 8.81718L -3.0935e-07 24.6492C -3.0935e-07 29.0738 3.57985 32.6609 7.99637 32.6609L 84.1096 32.6609C 88.5266 32.6609 92.1068 29.0738 92.1068 24.6492L 92.1068 8.81718C 92.1068 4.39218 88.527 0.805468 84.11 0.805468Z"/>
<path id="path1_fill" d="M 8.15154 24.6492L 8.15154 8.81718C 8.15154 4.39218 11.7314 0.805468 16.1479 0.805468L 20.3882 0.805468L 20.3882 1.54972e-07L 12.2371 1.54972e-07L 12.2371 0.805468L 7.99637 0.805468C 3.58024 0.805468 -3.0935e-07 4.39218 -3.0935e-07 8.81718L -3.0935e-07 24.6492C -3.0935e-07 29.0738 3.57985 32.6609 7.99637 32.6609L 16.1475 32.6609C 11.7318 32.6609 8.15154 29.0738 8.15154 24.6492Z"/>
<path id="path2_fill" d="M 67.6319 0L 0 0L 0 19.7512L 67.6319 19.7512L 67.6319 0Z"/>
<path id="path3_fill" d="M 67.6319 0L 0 0L 0 9.87538L 67.6319 9.87538L 67.6319 0Z"/>
<path id="path4_fill" d="M 117.724 113.634C 117.724 127.934 106.154 139.525 91.8826 139.525L 25.8414 139.525C 11.57 139.525 -1.48726e-09 127.934 -1.48726e-09 113.634L -1.48726e-09 25.891C -1.48726e-09 11.5914 11.57 3.33786e-07 25.8414 3.33786e-07L 91.8822 3.33786e-07C 106.153 3.33786e-07 117.723 11.5918 117.723 25.891L 117.723 113.634L 117.724 113.634Z"/>
<path id="path5_fill" d="M 8.03926 113.634L 8.03926 25.891C 8.03926 11.5914 19.6092 3.33786e-07 33.8807 3.33786e-07L 25.8414 3.33786e-07C 11.57 3.33786e-07 -1.48726e-09 11.5918 -1.48726e-09 25.891L -1.48726e-09 113.634C -1.48726e-09 127.934 11.57 139.525 25.8414 139.525L 33.8807 139.525C 19.6096 139.525 8.03926 127.934 8.03926 113.634Z"/>
<path id="path6_fill" d="M -5.23516e-07 8.58306e-07L -5.23516e-07 7.91601C -5.23516e-07 12.3406 3.57985 15.9277 7.99637 15.9277L 84.1097 15.9277C 88.5266 15.9277 92.1068 12.3406 92.1068 7.91601L 92.1068 8.58306e-07L -5.23516e-07 8.58306e-07Z"/>
<path id="path7_fill" d="M 8.15115 7.91601L 8.15115 8.58306e-07L -5.23516e-07 8.58306e-07L -5.23516e-07 7.91601C -5.23516e-07 12.3406 3.57985 15.9277 7.99637 15.9277L 16.1475 15.9277C 11.7314 15.9277 8.15115 12.3406 8.15115 7.91601Z"/>
<path id="path8_fill" d="M 24.2074 48.5078C 37.5768 48.5078 48.4149 37.6489 48.4149 24.2539C 48.4149 10.8588 37.5768 0 24.2074 0C 10.838 0 0 10.8588 0 24.2539C 0 37.6489 10.838 48.5078 24.2074 48.5078Z"/>
<path id="path9_fill" d="M 3.24728 33.1328C 9.93249 44.7336 24.7384 48.7082 36.3174 42.0109L 12.1088 -2.76565e-06C 0.53023 6.69726 -3.43794 21.5316 3.24728 33.1328Z"/>
<path id="path10_fill" d="M 13.9276 64.7496C 6.23607 64.7496 -4.75924e-07 58.5023 -4.75924e-07 50.7953L -4.75924e-07 13.9547C -4.75924e-07 6.24766 6.23607 4.29153e-06 13.9276 4.29153e-06C 21.6198 4.29153e-06 27.8559 6.24766 27.8559 13.9547L 27.8559 50.7953C 27.8559 58.5027 21.6202 64.7496 13.9276 64.7496Z"/>
<path id="path11_fill" d="M -4.75924e-07 -5.72204e-06L -4.75924e-07 18.4203C -4.75924e-07 26.1273 6.23607 32.3746 13.9276 32.3746C 21.6198 32.3746 27.8559 26.1273 27.8559 18.4203L 27.8559 -5.72204e-06L -4.75924e-07 -5.72204e-06Z"/>
<path id="path12_fill" d="M 11.3334 36.4009C 2.90427 21.7736 11.6414 3.16224 28.2696 0.353255C 8.2101 -3.03385 -6.95805 18.6103 3.29415 36.4009C 8.49354 45.4232 18.6046 49.8298 28.2899 48.1939C 21.4152 47.0329 15.091 42.9216 11.3334 36.4009Z"/>
<path id="path13_fill" d="M 11.5977 41.7207C 16.5612 44.7433 22.5107 45.8929 28.2251 44.9257C 9.19368 41.7117 1.35248 18.4672 14.6114 4.37383L 12.0913 -5.53131e-06C -3.72916 9.15155 -4.16036 32.0969 11.5977 41.7207Z"/>
<path id="path14_fill" d="M 27.8559 33.1804L 27.8559 13.9547C 27.8559 6.24766 21.6198 4.29153e-06 13.9276 4.29153e-06C 6.23607 4.29153e-06 -4.75924e-07 6.24766 -4.75924e-07 13.9547L -4.75924e-07 33.1804L 27.8559 33.1804Z"/>
<path id="path15_fill" d="M 17.9472 0.592581C 16.6742 0.208597 15.3253 4.29153e-06 13.9276 4.29153e-06C 6.23607 4.29153e-06 -4.75924e-07 6.24766 -4.75924e-07 13.9547L -4.75924e-07 33.1804L 8.03925 33.1804L 8.03925 13.9547C 8.03925 7.64844 12.2156 2.32149 17.9472 0.592581Z"/>
<path id="path16_fill" d="M 82.0195 67.6296C 82.0195 72.3402 78.2085 76.1581 73.507 76.1581L 8.51218 76.1581C 3.81105 76.1581 -2.02268e-07 72.3398 -2.02268e-07 67.6296L -2.02268e-07 8.52851C -2.02268e-07 3.81797 3.81105 5.72204e-07 8.51218 5.72204e-07L 73.5073 5.72204e-07C 78.2089 5.72204e-07 82.0199 3.81797 82.0199 8.52851L 82.0199 67.6296L 82.0195 67.6296Z"/>
<path id="path17_fill" d="M 8.03926 67.6296L 8.03926 8.52851C 8.03926 3.81797 11.8503 5.72204e-07 16.5514 5.72204e-07L 8.51218 5.72204e-07C 3.81105 5.72204e-07 -2.02268e-07 3.81797 -2.02268e-07 8.52851L -2.02268e-07 67.6293C -2.02268e-07 72.3398 3.81105 76.1578 8.51218 76.1578L 16.5514 76.1578C 11.8503 76.1581 8.03926 72.3398 8.03926 67.6296Z"/>
<path id="path18_fill" d="M 36.7268 14.4332L 28.0204 14.4332L 28.0204 5.70938C 28.0204 2.55586 25.4683 5.34057e-06 22.3208 5.34057e-06L 20.1052 5.34057e-06C 16.9573 5.34057e-06 14.4059 2.55625 14.4059 5.70938L 14.4059 14.4332L 5.69961 14.4332C 2.55174 14.4332 -1.30879e-06 16.9894 -1.30879e-06 20.143L -1.30879e-06 22.3629C -1.30879e-06 25.5172 2.55174 28.0726 5.69961 28.0726L 14.4059 28.0726L 14.4059 36.7965C 14.4059 39.95 16.9573 42.5066 20.1052 42.5066L 22.3208 42.5066C 25.4683 42.5066 28.0204 39.95 28.0204 36.7965L 28.0204 28.0726L 36.7268 28.0726C 39.8742 28.0726 42.4256 25.5168 42.4256 22.3629L 42.4256 20.143C 42.4256 16.9894 39.8742 14.4332 36.7268 14.4332Z"/>
<path id="path19_fill" d="M 59.6379 0L 7.99637 0C 3.57946 0 3.0935e-07 3.58711 3.0935e-07 8.01171L 3.0935e-07 12.1469L 67.6335 12.1469L 67.6335 8.01171C 67.6339 3.58711 64.054 0 59.6379 0Z"/>
<path id="path20_fill" d="M 15.9272 0L 7.99637 0C 3.57946 0 3.0935e-07 3.58711 3.0935e-07 8.01171L 3.0935e-07 12.1469L 7.93087 12.1469L 7.93087 8.01171C 7.93087 3.58711 11.5103 0 15.9272 0Z"/>
<path id="path21_fill" d="M 12.5334 7.39687C 9.3855 7.39687 6.83376 4.84101 6.83376 1.6871L 6.83376 -4.57763e-06L 5.69961 -4.57763e-06C 2.55174 -4.57763e-06 -1.30879e-06 2.55625 -1.30879e-06 5.70976L -1.30879e-06 7.92968C -1.30879e-06 11.084 2.55174 13.6394 5.69961 13.6394L 14.4059 13.6394L 14.4059 22.3633C 14.4059 25.5168 16.9573 28.0734 20.1052 28.0734L 22.3208 28.0734C 25.4683 28.0734 28.0204 25.5168 28.0204 22.3633L 28.0204 21.8308L 26.9389 21.8308C 23.7911 21.8308 21.2397 19.2742 21.2397 16.1207L 21.2397 12.5379L 21.2397 12.2301C 21.2397 9.56094 19.0802 7.39726 16.4161 7.39726L 12.9864 7.39726L 12.5334 7.39726L 12.5334 7.39687Z"/>
<path id="path22_fill" d="M 8.03925 18.4203L 8.03925 -5.72204e-06L -4.75924e-07 -5.72204e-06L -4.75924e-07 18.4203C -4.75924e-07 26.1273 6.23607 32.3746 13.9276 32.3746C 15.3253 32.3746 16.6742 32.166 17.9472 31.782C 12.2156 30.0535 8.03925 24.7269 8.03925 18.4203Z"/>
</defs>
</svg>
