<svg width="178" height="178" viewBox="0 0 178 178" version="1.1" xmlns="http://www.w3.org/2000/svg" xmlns:xlink="http://www.w3.org/1999/xlink">
<title>flight</title>
<desc>Created using Figma</desc>
<g id="Canvas" transform="translate(-2618 -790)">
<g id="flight">
<g id="Vector">
<use xlink:href="#path0_fill" transform="translate(2618 790)" fill="#B4EBFF"/>
</g>
<g id="Vector">
<use xlink:href="#path1_fill" transform="translate(2618 817.291)" fill="#6CD0F5"/>
</g>
<g id="Vector">
<use xlink:href="#path2_fill" transform="translate(2618 830.674)" fill="#4BB9E1"/>
</g>
<g id="Vector">
<use xlink:href="#path3_fill" transform="translate(2618.01 817.296)" fill="#FFEB50"/>
</g>
<g id="Vector">
<use xlink:href="#path4_fill" transform="translate(2618.01 857.768)" fill="#F7D139"/>
</g>
<g id="Vector">
<use xlink:href="#path5_fill" transform="translate(2631.78 922.109)" fill="#FF4682"/>
</g>
<g id="Vector">
<use xlink:href="#path6_fill" transform="translate(2637.91 932.539)" fill="#C42364"/>
</g>
<g id="Vector">
<use xlink:href="#path7_fill" transform="translate(2651.83 851.912)" fill="#41739B"/>
</g>
<g id="Vector">
<use xlink:href="#path8_fill" transform="translate(2729.01 796.953)" fill="#4191BE"/>
</g>
</g>
</g>
<defs>
<path id="path0_fill" d="M 151.933 26.0676C 186.689 60.8242 186.689 117.176 151.933 151.932C 117.176 186.689 60.8245 186.689 26.0676 151.932C -8.68935 117.176 -8.68901 60.8245 26.0676 26.0676C 60.8241 -8.68921 117.176 -8.68921 151.933 26.0676Z"/>
<path id="path1_fill" d="M 124.642 26.0639C 154.713 56.1348 158.761 102.368 136.797 136.797C 102.368 158.761 56.1347 154.712 26.0638 124.642C -4.00706 94.5708 -8.05517 48.3375 13.9077 13.9082C 48.3371 -8.05532 94.5705 -4.00722 124.642 26.0639Z"/>
<path id="path2_fill" d="M 137.322 122.572C 137.147 122.853 136.976 123.135 136.797 123.414C 102.368 145.377 56.1347 141.329 26.0638 111.258C -4.00706 81.1873 -8.05517 34.9543 13.9077 0.524612C 14.1868 0.346612 14.4691 0.174872 14.75 1.14584e-06C 3.26799 33.7334 10.9696 72.5533 37.8692 99.4528C 64.769 126.353 103.589 134.054 137.322 122.572Z"/>
<path id="path3_fill" d="M 150.601 93.2056C 148.328 92.1841 146.197 90.7442 144.331 88.8776C 143.655 88.2014 143.039 87.4877 142.474 86.7482C 127.891 95.8036 108.483 94.0013 95.822 81.3397C 81.0581 66.5758 81.0581 42.6387 95.822 27.8745C 101.234 22.4625 107.879 19.0371 114.853 17.5926C 118.266 20.1395 121.54 22.9583 124.64 26.0587C 143.091 44.5098 151.741 69.0456 150.601 93.2056ZM 49.8956 49.7073C 55.1564 54.968 63.6858 54.968 68.9461 49.7073C 73.9169 44.7365 74.1881 36.8492 69.7656 31.5569C 70.018 31.3597 70.2624 31.147 70.4946 30.9147C 72.1839 29.2255 72.947 26.9619 72.7881 24.7525C 77.4008 24.2488 81.8796 22.2338 85.4163 18.6974C 89.1926 14.9212 91.2344 10.07 91.5525 5.12912C 78.0509 0.335648 63.6256 -1.09774 49.5699 0.827928C 48.6851 7.1643 50.6768 13.825 55.5492 18.6974C 56.4072 19.5554 57.3229 20.3189 58.28 20.9982C 57.1213 22.7685 56.7465 24.901 57.1543 26.9063C 54.4962 27.3579 51.9468 28.6056 49.8953 30.6571C 44.6349 35.9175 44.6349 44.4465 49.8956 49.7073ZM 120.316 131.891C 120.57 123.367 117.445 114.762 110.94 108.256C 98.4156 95.732 78.11 95.732 65.586 108.256C 64.5368 109.305 63.578 110.41 62.7047 111.559C 62.1185 110.524 61.3877 109.549 60.5061 108.667C 55.9928 104.154 49.0759 103.516 43.8791 106.747C 43.189 105.138 42.2893 103.598 41.1809 102.168C 53.3784 87.3173 52.5423 65.3462 38.6695 51.4733C 28.8089 41.6128 14.8571 38.34 2.27857 41.6507C -4.3773 70.5478 3.54787 102.122 26.0628 124.637C 29.1117 127.686 32.3293 130.462 35.6814 132.976C 37.0038 132.147 38.2568 131.163 39.4072 130.012C 40.1453 129.274 40.8145 128.494 41.4205 127.68C 41.4326 127.693 41.4434 127.705 41.4556 127.718C 45.4411 131.703 51.3019 132.666 56.1972 130.613C 56.1454 135.838 57.3626 141.073 59.8483 145.816C 82.6483 153.697 108.011 152.037 129.736 140.847C 129.105 138.853 128.002 136.975 126.421 135.394C 124.668 133.641 122.553 132.476 120.316 131.891Z"/>
<path id="path4_fill" d="M 128.702 97.9697C 129.126 98.7435 129.474 99.5484 129.735 100.375C 108.011 111.565 82.6479 113.224 59.8479 105.344C 57.3622 100.6 56.1451 95.3657 56.1969 90.1408C 51.3015 92.1944 45.4407 91.2311 41.4552 87.2455C 41.443 87.2334 41.4319 87.2205 41.4201 87.2083C 40.8141 88.0212 40.1449 88.8016 39.4068 89.5401C 38.2561 90.6908 37.0031 91.675 35.681 92.5042C 32.3289 89.9903 29.1113 87.2136 26.0624 84.165C 3.54818 61.6501 -4.37734 30.0757 2.27854 1.17855C 4.70726 0.539214 7.18709 0.14845 9.67874 6.79015e-07C 8.5798 26.0533 17.9745 52.4664 37.8677 72.3596C 62.5026 96.9941 97.1351 105.526 128.702 97.9697Z"/>
<path id="path5_fill" d="M 31.418 19.1211C 31.418 23.8808 29.6749 28.2314 26.797 31.5779C 21.6621 28.2414 16.7939 24.3268 12.2903 19.8233C 7.54379 15.0768 3.45014 9.92486 3.71337e-07 4.48301C 3.32463 1.68682 7.61297 0 12.2969 0C 22.8573 0 31.418 8.56102 31.418 19.1211Z"/>
<path id="path6_fill" d="M 14.8592 8.69139C 14.8592 11.1354 13.8492 13.342 12.2253 14.921C 10.1418 13.1862 8.11568 11.3478 6.16116 9.39331C 3.96884 7.20099 1.91558 4.92211 -5.83529e-07 2.56883C 1.57453 0.982825 3.75608 0 6.16776 0C 10.9679 0 14.8592 3.89131 14.8592 8.69139Z"/>
<path id="path7_fill" d="M 39.6469 44.3367C 40.1899 44.8801 40.1899 45.7603 39.6469 46.3034L 32.2338 53.7164C 31.6908 54.2595 30.8101 54.2595 30.2671 53.7164L 28.5462 51.9955C 28.0032 51.4522 28.0032 50.5719 28.5462 50.0288L 35.9593 42.6158C 36.5023 42.0727 37.3829 42.0727 37.926 42.6158L 39.6469 44.3367ZM 23.8567 56.6851C 23.3136 56.142 22.433 56.142 21.89 56.6851L 14.4769 64.0985C 13.9339 64.6415 13.9339 65.5218 14.4769 66.0652L 16.1978 67.786C 16.7409 68.3291 17.6215 68.3291 18.1645 67.786L 25.5776 60.3726C 26.1206 59.8296 26.1206 58.9493 25.5776 58.406L 23.8567 56.6851ZM 81.8551 2.12817L 80.1342 0.40728C 79.5911 -0.135758 78.7105 -0.135758 78.1675 0.40728L 70.7544 7.82034C 70.2114 8.36338 70.2114 9.24364 70.7544 9.78702L 72.4753 11.5079C 73.0184 12.051 73.899 12.051 74.442 11.5079L 81.8551 4.09486C 82.3981 3.55182 82.3981 2.67156 81.8551 2.12817ZM 9.78704 70.7547C 9.244 70.2116 8.36339 70.2116 7.82035 70.7547L 0.40728 78.1677C -0.135759 78.7108 -0.135759 79.591 0.40728 80.1344L 2.12818 81.8553C 2.67121 82.3984 3.55183 82.3984 4.09486 81.8553L 11.5079 74.4423C 12.051 73.8992 12.051 73.019 11.5079 72.4756L 9.78704 70.7547ZM 66.0649 14.4769C 65.5219 13.9339 64.6412 13.9339 64.0982 14.4769L 56.6851 21.89C 56.1421 22.433 56.1421 23.3133 56.6851 23.8566L 58.406 25.5775C 58.9491 26.1206 59.8297 26.1206 60.3727 25.5775L 67.7858 18.1645C 68.3288 17.6214 68.3288 16.7412 67.7858 16.1978L 66.0649 14.4769ZM 51.9956 28.5462C 51.4526 28.0031 50.572 28.0031 50.0289 28.5462L 42.6158 35.9592C 42.0728 36.5023 42.0728 37.3825 42.6158 37.9259L 44.3367 39.6468C 44.8798 40.1898 45.7604 40.1902 46.3034 39.6468L 53.7165 32.2337C 54.2595 31.6907 54.2595 30.8105 53.7165 30.2671L 51.9956 28.5462Z"/>
<path id="path8_fill" d="M 59.5665 54.103C 60.0679 55.6633 58.4207 56.1278 57.093 54.8004L 35.7556 33.4631L 23.7799 45.4387C 22.724 46.4946 21.4857 47.2539 20.1681 47.7291L 23.0136 59.3328C 23.1826 60.0215 22.4185 60.2937 21.866 59.7413L 13.2424 51.1184L 7.66533 53.885C 6.69641 54.3658 5.67152 53.3406 6.15198 52.3717L 8.91862 46.7946L 0.295019 38.1707C -0.257059 37.6186 0.0148063 36.8541 0.70386 37.0234L 12.3076 39.869C 12.7828 38.5513 13.5418 37.3133 14.5979 36.2572L 26.5736 24.2815L 5.23626 2.94412C 3.90856 1.61677 4.37303 -0.0307723 5.93331 0.470547L 39.5767 11.2785L 47.9746 2.88049C 50.9857 -0.13055 55.4628 -0.780665 59.108 0.928757C 60.8174 4.57393 60.1673 9.05103 57.1562 12.0621L 48.7583 20.46L 59.5665 54.103Z"/>
</defs>
</svg>
