<svg width="36" height="40" viewBox="0 0 36 40" version="1.1" xmlns="http://www.w3.org/2000/svg" xmlns:xlink="http://www.w3.org/1999/xlink">
<title>cube</title>
<desc>Created using Figma</desc>
<g id="Canvas" transform="translate(1 -1004)">
<g id="cube">
<g id="Group">
<g id="Group">
<g id="Vector">
<use xlink:href="#path0_fill" transform="translate(-1 1015.11)" fill="#FFFFFF"/>
</g>
</g>
</g>
<g id="Group">
<g id="Group">
<g id="Vector">
<use xlink:href="#path1_fill" transform="translate(1.1563 1004)" fill="#FFFFFF"/>
</g>
</g>
</g>
<g id="Group">
<g id="Group">
<g id="Vector">
<use xlink:href="#path2_fill" transform="translate(18.9286 1015.11)" fill="#FFFFFF"/>
</g>
</g>
</g>
</g>
</g>
<defs>
<path id="path0_fill" d="M 1.44561 0.71958C 0.780819 0.388667 4.31069e-08 0.872204 4.31069e-08 1.61481L 4.31069e-08 20.274C 4.31069e-08 20.6534 0.21472 21.0002 0.554379 21.1692L 14.6258 28.1737C 15.2906 28.5046 16.0714 28.0211 16.0714 27.2785L 16.0714 8.61911C 16.0714 8.2397 15.8567 7.89296 15.517 7.72389L 1.44561 0.71958Z"/>
<path id="path1_fill" d="M 16.2893 0.221824C 16.0087 0.0821168 15.6787 0.0821174 15.3981 0.221824L 1.79843 6.99149C 1.05926 7.35944 1.05927 8.41399 1.79844 8.78193L 15.3981 15.5515C 15.6787 15.6912 16.0087 15.6912 16.2893 15.5515L 29.889 8.78193C 30.6281 8.41399 30.6281 7.35944 29.889 6.99149L 16.2893 0.221824Z"/>
<path id="path2_fill" d="M 0.554385 7.72389C 0.214722 7.89296 -8.81297e-07 8.2397 -8.81297e-07 8.61911L -8.81297e-07 27.2785C -8.81297e-07 28.0211 0.780825 28.5046 1.44562 28.1737L 15.5171 21.1692C 15.8567 21.0002 16.0714 20.6534 16.0714 20.274L 16.0714 1.6148C 16.0714 0.872202 15.2906 0.388667 14.6258 0.719581L 0.554385 7.72389Z"/>
</defs>
</svg>
