<svg width="36" height="36" viewBox="0 0 36 36" version="1.1" xmlns="http://www.w3.org/2000/svg" xmlns:xlink="http://www.w3.org/1999/xlink">
<title>move-object-button</title>
<desc>Created using Figma</desc>
<g id="Canvas" transform="translate(553 -1007)">
<g id="move-object-button">
<g id="Group">
<g id="Vector">
<use xlink:href="#path0_fill" transform="translate(-553 1007)" fill="#FFFFFF"/>
</g>
</g>
</g>
</g>
<defs>
<path id="path0_fill" d="M 17.9997 0C 8.05935 0 0 8.05908 0 18.0003C 0 27.9403 8.05935 36 17.9997 36C 27.9409 36 36 27.9403 36 18.0003C 35.9999 8.05849 27.9415 0 17.9997 0ZM 31.0396 17.1376L 31.957 18.0536L 31.0396 18.9704C 31.0396 18.9704 31.0384 18.971 31.0384 18.9716L 28.0128 21.9979C 27.7592 22.2515 27.4262 22.3788 27.0953 22.3788C 26.7622 22.3788 26.4316 22.2515 26.1779 21.9979C 25.6713 21.4913 25.6713 20.6703 26.1779 20.1642L 26.9901 19.352L 19.3518 19.352L 19.3518 23.1221C 19.3518 23.3056 19.3121 23.4809 19.2431 23.638L 19.2431 26.9903L 20.2715 25.9619C 20.7788 25.4547 21.6003 25.4547 22.1063 25.9619C 22.6135 26.4679 22.6135 27.2896 22.1063 27.7962L 18.8645 31.0386L 18.8622 31.0398L 17.9466 31.9566L 17.0303 31.0398L 17.0285 31.0386L 14.0023 28.0119C 13.4954 27.5047 13.4954 26.6837 14.0023 26.1776C 14.5095 25.671 15.3299 25.671 15.8368 26.1776L 16.6487 26.9904L 16.6487 19.3515L 12.8789 19.3515C 12.6955 19.3515 12.5207 19.3124 12.3627 19.2428L 9.01066 19.2428L 10.0393 20.2718C 10.5465 20.779 10.5465 21.5994 10.0393 22.1055C 9.78544 22.3596 9.45352 22.4864 9.12198 22.4864C 8.79044 22.4864 8.45852 22.3596 8.20512 22.1055L 4.96274 18.8637C 4.96157 18.8624 4.96098 18.8624 4.96098 18.8624L 4.045 17.9457L 4.96098 17.0294C 4.96098 17.0294 4.96157 17.0288 4.96274 17.0276L 7.98928 14.0011C 8.49617 13.4942 9.31718 13.4942 9.8232 14.0011C 10.3307 14.5085 10.3307 15.329 9.8232 15.8357L 9.01124 16.6479L 16.6499 16.6479L 16.6499 12.8775C 16.6499 12.6937 16.6893 12.519 16.7583 12.3619L 16.7583 9.00893L 15.729 10.0373C 15.476 10.2912 15.1437 10.418 14.8116 10.418C 14.4797 10.418 14.1481 10.2912 13.8951 10.0373C 13.3882 9.53042 13.3882 8.7097 13.8951 8.20339L 17.1375 4.9609C 17.1375 4.9609 17.1387 4.96032 17.1393 4.95915L 18.0555 4.04287L 18.972 4.95915C 18.9726 4.96032 18.9732 4.9609 18.9732 4.9609L 22 7.98746C 22.5066 8.49406 22.5066 9.31507 22 9.82137C 21.4928 10.3289 20.6723 10.3289 20.1657 9.82137L 19.3541 9.00941L 19.3541 16.6481L 23.1242 16.6481C 23.3077 16.6481 23.4831 16.6875 23.6408 16.7562L 26.993 16.7562L 25.9641 15.7277C 25.4569 15.2209 25.4569 14.3994 25.9641 13.8931C 26.4713 13.3865 27.2917 13.3865 27.7983 13.8931L 31.0401 17.1357C 31.0384 17.137 31.0396 17.1376 31.0396 17.1376Z"/>
</defs>
</svg>
