<svg width="35" height="31" viewBox="0 0 35 31" version="1.1" xmlns="http://www.w3.org/2000/svg" xmlns:xlink="http://www.w3.org/1999/xlink">
<title>audio-speaker-on</title>
<desc>Created using Figma</desc>
<g id="Canvas" transform="translate(1 -1169)">
<g id="audio-speaker-on">
<g id="Group">
<g id="Vector">
<use xlink:href="#path0_fill" transform="translate(-1 1171.02)" fill="#FFFFFF"/>
</g>
<g id="Vector">
<use xlink:href="#path1_fill" transform="translate(18.8454 1173.74)" fill="#FFFFFF"/>
</g>
<g id="Vector">
<use xlink:href="#path2_fill" transform="translate(24.2184 1169)" fill="#FFFFFF"/>
</g>
</g>
</g>
</g>
<defs>
<path id="path0_fill" d="M 14.5405 0.373481L 7.89252 5.33287L 1.82135 5.33287C 0.819608 5.33287 0 6.14935 0 7.14728L 0 19.7877C 0 20.7859 0.819608 21.6021 1.82135 21.6021L 7.89252 21.6021L 14.5405 26.5615C 15.7547 27.4687 17.4546 26.6219 17.4546 25.1099L 17.4546 1.82501C 17.4546 0.313001 15.7243 -0.533724 14.5405 0.373481Z"/>
<path id="path1_fill" d="M 3.61963 0.612364C 2.80002 -0.204121 1.43401 -0.204121 0.614706 0.612364C -0.204902 1.42885 -0.204902 2.78966 0.614706 3.60614C 4.56097 7.53736 4.56097 13.9183 0.614706 17.8496C -0.204902 18.666 -0.204902 20.0269 0.614706 20.843C 1.03938 21.2664 1.58579 21.4478 2.10184 21.4478C 2.61789 21.4478 3.19495 21.2365 3.58928 20.8128C 9.23547 15.2788 9.23547 6.20679 3.61963 0.612364Z"/>
<path id="path2_fill" d="M 0.614478 0.608635C -0.204827 1.42512 -0.204827 2.78593 0.614478 3.60241C 3.80184 6.77763 5.56279 10.981 5.56279 15.4868C 5.56279 19.9926 3.80184 24.196 0.614478 27.3712C -0.204827 28.1877 -0.204827 29.5485 0.614478 30.365C 1.03946 30.788 1.58587 31 2.10192 31C 2.64832 31 3.19473 30.7883 3.58935 30.3952C 7.56597 26.4337 9.78164 21.1417 9.78164 15.517C 9.78164 9.89237 7.59602 4.63058 3.58935 0.638875C 2.8001 -0.20785 1.46444 -0.20785 0.614478 0.608635Z"/>
</defs>
</svg>
