<svg width="17" height="17" viewBox="0 0 17 17" version="1.1" xmlns="http://www.w3.org/2000/svg" xmlns:xlink="http://www.w3.org/1999/xlink">
<title>Union</title>
<desc>Created using Figma</desc>
<g id="Canvas" transform="translate(-580 -2485)">
<g id="Union">
<use xlink:href="#path0_fill" transform="translate(580 2485)" fill="#FFFFFF"/>
</g>
</g>
<defs>
<path id="path0_fill" fill-rule="evenodd" d="M 0.621323 0.621368C -0.207108 1.44974 -0.207108 2.793 0.621323 3.62137L 5.12132 8.12137L 0.621323 12.6214C -0.207108 13.4499 -0.207108 14.793 0.621323 15.6214C 1.44975 16.4499 2.79289 16.4499 3.62132 15.6214L 8.12132 11.1214L 12.6213 15.6214C 13.4498 16.4499 14.7929 16.4499 15.6213 15.6214C 16.4498 14.793 16.4498 13.4499 15.6213 12.6214L 11.1213 8.12137L 15.6213 3.62137C 16.4498 2.793 16.4498 1.44974 15.6213 0.621368C 14.7929 -0.207123 13.4498 -0.207123 12.6213 0.621368L 8.12132 5.12137L 3.62132 0.621368C 2.79289 -0.207123 1.44975 -0.207123 0.621323 0.621368Z"/>
</defs>
</svg>
