<svg width="29" height="39" viewBox="0 0 29 39" version="1.1" xmlns="http://www.w3.org/2000/svg" xmlns:xlink="http://www.w3.org/1999/xlink">
<title>Group</title>
<desc>Created using Figma</desc>
<g id="Canvas" transform="translate(-2 -921)">
<g id="Group">
<g id="Group">
<g id="Vector">
<use xlink:href="#path0_fill" transform="translate(2 921)" fill="#FFFFFF"/>
</g>
</g>
</g>
</g>
<defs>
<path id="path0_fill" d="M 28.9174 22.834C 28.4745 17.0175 25.7895 13.3726 23.4209 10.1562C 21.2276 7.1785 19.3333 4.6071 19.3333 0.813891C 19.3333 0.509204 19.1642 0.23072 18.8959 0.0910967C 18.6268 -0.0493642 18.3035 -0.0263603 18.0589 0.152948C 14.5016 2.7204 11.5335 7.04764 10.4966 11.1765C 9.77685 14.051 9.68162 17.2825 9.66825 19.4167C 6.3831 18.709 5.63891 13.7527 5.63106 13.6987C 5.59406 13.4416 5.43833 13.2179 5.21177 13.0957C 4.98286 12.9751 4.71378 12.9663 4.48171 13.0822C 4.30945 13.1663 0.253297 15.245 0.017294 23.5448C 0.000754927 23.8209 0 24.0979 0 24.3748C 0 32.4381 6.50499 38.9988 14.5 38.9988C 14.511 38.9995 14.5228 39.0011 14.5322 38.9988C 14.5354 38.9988 14.5385 38.9988 14.5424 38.9988C 22.5178 38.9757 29 32.4238 29 24.3748C 29 23.9693 28.9174 22.834 28.9174 22.834ZM 14.5 37.3739C 11.8347 37.3739 9.66667 35.0444 9.66667 32.1811C 9.66667 32.0835 9.66591 31.9851 9.67293 31.8645C 9.70518 30.657 9.93258 29.8326 10.1819 29.2843C 10.6493 30.2967 11.4847 31.2274 12.8417 31.2274C 13.287 31.2274 13.6473 30.864 13.6473 30.415C 13.6473 29.2582 13.6709 27.9237 13.9565 26.7192C 14.2106 25.6513 14.8179 24.5151 15.5873 23.6044C 15.9295 24.7865 16.5966 25.7433 17.248 26.6772C 18.1802 28.0133 19.1439 29.3946 19.313 31.7502C 19.3232 31.8899 19.3335 32.0303 19.3335 32.1811C 19.3333 35.0444 17.1653 37.3739 14.5 37.3739Z"/>
</defs>
</svg>
