<svg width="131" height="131" viewBox="0 0 131 131" version="1.1" xmlns="http://www.w3.org/2000/svg" xmlns:xlink="http://www.w3.org/1999/xlink">
<title>Subtract</title>
<desc>Created using Figma</desc>
<g id="Canvas" transform="translate(551 -1815)">
<g id="Subtract">
<use xlink:href="#path0_fill" transform="translate(-551 1815)" fill="url(#paint0_linear)"/>
</g>
</g>
<defs>
<linearGradient id="paint0_linear" x1="0" y1="0" x2="1" y2="0" gradientUnits="userSpaceOnUse" gradientTransform="matrix(-120.836 120.836 -120.836 -120.836 181.254 70.5819)">
<stop offset="0" stop-color="#A44BF8"/>
<stop offset="1" stop-color="#D78DF3"/>
</linearGradient>
<path id="path0_fill" fill-rule="evenodd" d="M 0.0291748 9.23022L 1.75287 8.43909L 6.39624 6.30786C 8.13751 5.49414 10.1884 6.07532 11.2718 7.66406L 15.6057 14.0966C 16.4956 15.4141 18.0821 16.1116 19.6686 15.9178C 21.9903 15.6078 24.3507 15.5304 26.7498 15.6853C 28.3362 15.8016 29.884 14.9878 30.6967 13.5929L 34.4888 7.00537C 35.4561 5.30042 37.4683 4.56409 39.2869 5.2616L 44.1238 7.04407L 48.9607 8.82666C 50.7406 9.48535 51.8241 11.3842 51.4758 13.2828L 50.0054 20.994C 49.6959 22.5828 50.315 24.1328 51.5532 25.1403C 53.3332 26.5741 54.9971 28.1628 56.5062 29.8291C 57.5896 31.0303 59.2535 31.5341 60.8013 31.1078L 68.1534 29.0541C 70.0494 28.5891 71.9841 29.4803 72.7581 31.224L 74.8863 35.874L 77.0145 40.524C 77.7884 42.2678 77.2079 44.3215 75.6215 45.4065L 69.1207 49.824C 67.8051 50.7152 67.1086 52.2264 67.3021 53.8152C 67.5342 56.0627 67.6116 58.349 67.4955 60.674C 67.4182 62.2627 68.192 63.7739 69.5851 64.5878L 76.2019 68.424C 77.9045 69.3927 78.6397 71.4077 77.9432 73.229L 76.1632 78.0726L 74.3832 82.9164C 73.7254 84.699 71.8293 85.7839 69.9333 85.4352L 62.233 83.9626C 60.6465 83.6527 59.0987 84.2727 58.0927 85.5127C 56.6609 87.3339 55.0745 89.0001 53.4106 90.5114C 52.211 91.5964 51.708 93.2239 52.1336 94.7739L 54.1071 102.175C 54.6101 104.035 53.6815 105.973 52.0175 106.67L 47.3742 108.801L 42.7308 110.933C 40.9895 111.746 38.9387 111.165 37.8552 109.576L 33.444 103.066C 32.554 101.749 31.0062 101.051 29.4197 101.245C 27.2528 101.478 25.0859 101.555 22.8802 101.478C 21.2938 101.439 19.7847 102.214 18.9721 103.609L 15.1026 110.313C 14.1353 112.018 12.1231 112.754 10.3044 112.056L 5.46753 110.274L 0.630676 108.491C 0.40918 108.409 0.198486 108.308 0 108.19L 0 121C 0 126.523 4.47717 131 10 131L 63.8944 131C 63.9215 130.556 63.8336 130.103 63.626 129.688C 63.0069 128.448 62.5039 127.208 62.0782 125.89C 61.8074 124.999 61.0335 124.301 60.1048 124.146L 55.5388 123.333C 54.4167 123.139 53.6041 122.131 53.6041 121.008L 53.6041 117.946L 53.6041 114.885C 53.6041 113.761 54.4554 112.793 55.5775 112.599L 60.1435 111.863C 61.1109 111.708 61.8461 111.01 62.1556 110.119C 62.5813 108.801 63.1617 107.523 63.8195 106.244C 64.2452 105.391 64.2065 104.345 63.6647 103.57L 61.0722 99.8502C 60.4144 98.9202 60.5305 97.6415 61.343 96.8276L 63.51 94.6577L 65.6769 92.4877C 66.4508 91.7126 67.7664 91.5964 68.6951 92.2552L 72.4872 95.0065C 73.2611 95.549 74.2672 95.6265 75.1184 95.2002C 76.318 94.5802 77.5949 94.0764 78.8719 93.689C 79.8005 93.3789 80.497 92.6427 80.6518 91.674L 81.387 87.179C 81.5805 86.0552 82.5865 85.2415 83.7087 85.2415L 86.7656 85.2415L 89.8225 85.2415C 90.9447 85.2415 91.912 86.094 92.1055 87.2177L 92.8407 91.829C 92.9955 92.7589 93.6533 93.4952 94.5433 93.8052C 95.8202 94.2701 97.0972 94.7739 98.2967 95.4326C 99.1093 95.8977 100.154 95.8202 100.928 95.2777L 104.643 92.6427C 105.571 91.9839 106.848 92.1002 107.661 92.9139L 109.828 95.084L 111.995 97.2539C 112.769 98.0289 112.885 99.3464 112.227 100.276L 109.48 104.074C 108.938 104.849 108.86 105.856 109.286 106.709C 109.905 107.949 110.408 109.228 110.795 110.506C 111.066 111.436 111.84 112.134 112.769 112.289L 117.257 113.064C 118.379 113.258 119.192 114.265 119.269 115.389L 119.269 118.45L 119.269 121.511C 119.269 122.635 118.418 123.604 117.296 123.798L 112.691 124.534C 111.724 124.689 110.989 125.386 110.679 126.278C 110.292 127.518 109.75 128.719 109.17 129.881C 108.993 130.237 108.896 130.619 108.883 131L 121 131C 126.523 131 131 126.523 131 121L 131 114.626L 130.917 114.614C 130.143 114.498 129.562 113.839 129.523 113.064L 129.446 109.886C 129.446 109.228 129.059 108.646 128.479 108.375C 127.627 107.988 126.815 107.484 126.041 106.941C 125.499 106.554 124.803 106.476 124.222 106.786L 121.398 108.259C 120.662 108.608 119.811 108.453 119.347 107.794L 118.07 106.089L 116.793 104.384C 116.367 103.764 116.406 102.911 116.948 102.33L 119.153 100.044C 119.618 99.5789 119.734 98.8813 119.54 98.2614C 119.231 97.3701 118.999 96.4402 118.844 95.5101C 118.766 94.8514 118.302 94.309 117.683 94.1151L 114.665 93.1464C 113.891 92.8751 113.426 92.1389 113.543 91.3639L 113.852 89.2715L 114.162 87.179C 114.278 86.4039 114.936 85.8226 115.709 85.7839L 118.882 85.7064C 119.54 85.6677 120.159 85.2802 120.43 84.699C 120.856 83.8464 121.359 83.0327 121.939 82.219C 122.326 81.7152 122.404 80.979 122.094 80.3977L 120.662 77.6077C 120.314 76.8715 120.469 76.0189 121.127 75.554L 122.829 74.2753L 124.532 72.9965C 125.151 72.5315 126.041 72.5702 126.621 73.1127L 128.943 75.3214C 129.407 75.7865 130.104 75.9027 130.723 75.709C 130.815 75.6809 130.908 75.6531 131 75.6259L 131 10C 131 4.47717 126.523 0 121 0L 10 0C 4.73621 0 0.422241 4.06714 0.0291748 9.23022ZM 131 84.8916C 130.894 84.9669 130.788 85.0447 130.684 85.1251C 126.583 88.2639 125.847 94.1151 128.982 98.184C 129.569 98.9537 130.252 99.6052 131 100.135L 131 84.8916ZM 82.19 131L 90.5411 131C 92.5491 130.348 94.4337 129.213 96.0137 127.595C 101.238 122.248 101.16 113.684 95.8203 108.453C 90.4803 103.221 81.9287 103.299 76.7049 108.646C 71.4811 113.994 71.5585 122.558 76.8984 127.789C 78.4456 129.305 80.2625 130.375 82.19 131ZM 16.9987 80.049C 28.8006 84.2339 41.7634 78.0726 45.9811 66.2539C 50.1602 54.4353 44.0077 41.454 32.1671 37.269C 20.3651 33.084 7.40228 39.2452 3.22327 51.064C -0.955811 62.8827 5.19672 75.8639 16.9987 80.049Z"/>
</defs>
</svg>
