<svg width="117" height="28" viewBox="0 0 117 28" version="1.1" xmlns="http://www.w3.org/2000/svg" xmlns:xlink="http://www.w3.org/1999/xlink">
<title>Bestin Build LIMITED</title>
<desc>Created using Figma</desc>
<g id="Canvas" transform="translate(502 453)">
<g id="Bestin Build LIMITED">
<use xlink:href="#path0_fill" transform="translate(-502 -457)" fill="#FFFFFF"/>
</g>
</g>
<defs>
<path id="path0_fill" d="M 1.36 19L 1.36 4.88L 7.94 4.88C 9.68667 4.88 10.9533 5.22 11.74 5.9C 12.54 6.56667 12.94 7.46 12.94 8.58C 12.94 9.14 12.8267 9.63333 12.6 10.06C 12.3733 10.4867 12.0867 10.8133 11.74 11.04C 11.3933 11.2533 11.0667 11.42 10.76 11.54C 10.4667 11.6467 10.1867 11.7133 9.92 11.74C 10.2267 11.7667 10.5267 11.82 10.82 11.9C 11.1133 11.9667 11.4267 12.08 11.76 12.24C 12.0933 12.4 12.38 12.6 12.62 12.84C 12.8733 13.0667 13.08 13.3733 13.24 13.76C 13.4 14.1333 13.48 14.56 13.48 15.04C 13.48 16.2933 12.9867 17.2667 12 17.96C 11.0267 18.6533 9.78667 19 8.28 19L 1.36 19ZM 4.72 10.46L 7.38 10.46C 8.78 10.46 9.48 9.95333 9.48 8.94C 9.48 7.99333 8.86 7.52 7.62 7.52L 4.72 7.52L 4.72 10.46ZM 4.72 16.44L 7.18 16.44C 7.55333 16.44 7.86 16.4267 8.1 16.4C 8.35333 16.3733 8.63333 16.3133 8.94 16.22C 9.26 16.1133 9.5 15.94 9.66 15.7C 9.82 15.46 9.9 15.1467 9.9 14.76C 9.9 14.44 9.84667 14.1667 9.74 13.94C 9.63333 13.7 9.50667 13.5267 9.36 13.42C 9.22667 13.3 9.04667 13.2133 8.82 13.16C 8.59333 13.0933 8.40667 13.0533 8.26 13.04C 8.12667 13.0267 7.96 13.02 7.76 13.02L 4.72 13.02L 4.72 16.44ZM 25.8298 14.42L 18.3698 14.42L 18.3698 14.54C 18.3698 15.2467 18.5898 15.84 19.0298 16.32C 19.4698 16.7867 20.0432 17.02 20.7498 17.02C 21.4165 17.02 21.9765 16.84 22.4298 16.48C 22.8832 16.1067 23.2032 15.6667 23.3898 15.16L 25.7098 16.36C 25.1232 17.3467 24.3832 18.1 23.4898 18.62C 22.5965 19.1267 21.6032 19.38 20.5098 19.38C 18.9098 19.38 17.6298 18.9 16.6698 17.94C 15.7098 16.98 15.2298 15.66 15.2298 13.98C 15.2298 13.2733 15.3232 12.6 15.5098 11.96C 15.6965 11.32 15.9832 10.7133 16.3698 10.14C 16.7565 9.56667 17.3098 9.10667 18.0298 8.76C 18.7632 8.41333 19.6165 8.24 20.5898 8.24C 21.5232 8.24 22.3432 8.42 23.0498 8.78C 23.7565 9.12667 24.3032 9.6 24.6898 10.2C 25.0765 10.7867 25.3632 11.42 25.5498 12.1C 25.7365 12.78 25.8298 13.5067 25.8298 14.28L 25.8298 14.42ZM 18.3698 12.5L 22.6498 12.5C 22.6232 11.9 22.4232 11.4067 22.0498 11.02C 21.6765 10.6333 21.1832 10.44 20.5698 10.44C 19.9165 10.44 19.4098 10.6533 19.0498 11.08C 18.6898 11.4933 18.4632 11.9667 18.3698 12.5ZM 36.01 9.78L 34.11 11.54C 33.27 10.8467 32.3833 10.5 31.45 10.5C 31.0633 10.5 30.7233 10.5667 30.43 10.7C 30.15 10.8333 30.01 11.0333 30.01 11.3C 30.01 11.54 30.13 11.72 30.37 11.84C 30.61 11.9467 31.0567 12.0667 31.71 12.2L 32.45 12.34C 34.9567 12.8067 36.21 13.9 36.21 15.62C 36.21 16.4333 35.9433 17.1267 35.41 17.7C 34.8767 18.2733 34.25 18.68 33.53 18.92C 32.81 19.1467 32.0567 19.26 31.27 19.26C 30.11 19.26 29.0967 19.0533 28.23 18.64C 27.3767 18.2267 26.7033 17.76 26.21 17.24L 28.15 15.48C 28.55 15.9067 29.0233 16.2533 29.57 16.52C 30.1167 16.7867 30.6567 16.92 31.19 16.92C 31.7233 16.92 32.1633 16.8333 32.51 16.66C 32.87 16.4733 33.05 16.22 33.05 15.9C 33.05 15.6333 32.9233 15.44 32.67 15.32C 32.43 15.1867 32.0033 15.0733 31.39 14.98L 30.45 14.82C 28.1167 14.42 26.95 13.3867 26.95 11.72C 26.95 10.76 27.3367 9.94 28.11 9.26C 28.8967 8.56667 29.9833 8.22 31.37 8.22C 33.1033 8.22 34.65 8.74 36.01 9.78ZM 43.4997 10.7L 41.4597 10.7L 41.4597 15.7C 41.4597 16.0333 41.5264 16.26 41.6597 16.38C 41.793 16.5 41.993 16.56 42.2597 16.56L 43.3397 16.54L 43.3397 18.92C 42.8064 19.0267 42.1597 19.08 41.3997 19.08C 40.453 19.08 39.7197 18.8733 39.1997 18.46C 38.6797 18.0333 38.4197 17.2533 38.4197 16.12L 38.4197 10.68L 36.8997 10.68L 36.8997 8.8L 38.4197 8.8L 38.4197 5.54L 41.4597 5.54L 41.4597 8.82L 43.4997 8.82L 43.4997 10.7ZM 48.19 7.26L 45.13 7.26L 45.13 4.88L 48.19 4.88L 48.19 7.26ZM 48.19 19L 45.13 19L 45.13 8.56L 48.19 8.56L 48.19 19ZM 60.2898 19L 57.2098 19L 57.2098 12.56C 57.2098 11.36 56.7032 10.76 55.6898 10.76C 55.0365 10.76 54.6032 10.96 54.3898 11.36C 54.1765 11.76 54.0698 12.36 54.0698 13.16L 54.0698 19L 50.9898 19L 50.9898 8.56L 54.1098 8.56L 54.1098 9.48C 54.7632 8.69333 55.7432 8.3 57.0498 8.3C 59.2098 8.3 60.2898 9.36667 60.2898 11.5L 60.2898 19ZM 68.86 19L 68.86 4.88L 75.44 4.88C 77.1867 4.88 78.4533 5.22 79.24 5.9C 80.04 6.56667 80.44 7.46 80.44 8.58C 80.44 9.14 80.3267 9.63333 80.1 10.06C 79.8733 10.4867 79.5867 10.8133 79.24 11.04C 78.8933 11.2533 78.5667 11.42 78.26 11.54C 77.9667 11.6467 77.6867 11.7133 77.42 11.74C 77.7267 11.7667 78.0267 11.82 78.32 11.9C 78.6133 11.9667 78.9267 12.08 79.26 12.24C 79.5933 12.4 79.88 12.6 80.12 12.84C 80.3733 13.0667 80.58 13.3733 80.74 13.76C 80.9 14.1333 80.98 14.56 80.98 15.04C 80.98 16.2933 80.4867 17.2667 79.5 17.96C 78.5267 18.6533 77.2867 19 75.78 19L 68.86 19ZM 72.22 10.46L 74.88 10.46C 76.28 10.46 76.98 9.95333 76.98 8.94C 76.98 7.99333 76.36 7.52 75.12 7.52L 72.22 7.52L 72.22 10.46ZM 72.22 16.44L 74.68 16.44C 75.0533 16.44 75.36 16.4267 75.6 16.4C 75.8533 16.3733 76.1333 16.3133 76.44 16.22C 76.76 16.1133 77 15.94 77.16 15.7C 77.32 15.46 77.4 15.1467 77.4 14.76C 77.4 14.44 77.3467 14.1667 77.24 13.94C 77.1333 13.7 77.0067 13.5267 76.86 13.42C 76.7267 13.3 76.5467 13.2133 76.32 13.16C 76.0933 13.0933 75.9067 13.0533 75.76 13.04C 75.6267 13.0267 75.46 13.02 75.26 13.02L 72.22 13.02L 72.22 16.44ZM 92.3402 19L 89.2602 19L 89.2602 18.02C 89.0602 18.3133 88.6935 18.6 88.1602 18.88C 87.6268 19.16 86.9802 19.3 86.2202 19.3C 85.0735 19.3 84.2402 19 83.7202 18.4C 83.2002 17.8 82.9402 16.8533 82.9402 15.56L 82.9402 8.56L 86.0402 8.56L 86.0402 15.26C 86.0402 16.2867 86.5335 16.8 87.5202 16.8C 88.1068 16.8 88.5468 16.64 88.8402 16.32C 89.1335 16 89.2802 15.5867 89.2802 15.08L 89.2802 8.56L 92.3402 8.56L 92.3402 19ZM 98.1705 7.26L 95.1105 7.26L 95.1105 4.88L 98.1705 4.88L 98.1705 7.26ZM 98.1705 19L 95.1105 19L 95.1105 8.56L 98.1705 8.56L 98.1705 19ZM 104.01 19L 100.95 19L 100.95 4.88L 104.01 4.88L 104.01 19ZM 116.13 19L 113.33 19L 113.33 18.02C 112.503 18.86 111.577 19.28 110.55 19.28C 109.257 19.28 108.177 18.8 107.31 17.84C 106.457 16.88 106.03 15.5533 106.03 13.86C 106.03 12.2467 106.41 10.9133 107.17 9.86C 107.943 8.80667 109.017 8.28 110.39 8.28C 111.35 8.28 112.27 8.63333 113.15 9.34L 113.15 4.88L 116.13 4.88L 116.13 19ZM 109.15 13.84C 109.15 14.1467 109.17 14.4467 109.21 14.74C 109.263 15.0333 109.35 15.3667 109.47 15.74C 109.59 16.1133 109.79 16.42 110.07 16.66C 110.363 16.8867 110.717 17 111.13 17C 111.597 17 111.983 16.8733 112.29 16.62C 112.597 16.3533 112.81 16.0133 112.93 15.6C 113.05 15.1867 113.123 14.8533 113.15 14.6C 113.19 14.3333 113.21 14.0867 113.21 13.86C 113.21 11.6733 112.57 10.58 111.29 10.58C 110.543 10.58 109.997 10.9067 109.65 11.56C 109.317 12.2 109.15 12.96 109.15 13.84ZM 5.39 32L 0.81 32L 0.81 24.94L 1.49 24.94L 1.49 31.38L 5.39 31.38L 5.39 32ZM 10.8999 32L 10.2299 32L 10.2299 24.94L 10.8999 24.94L 10.8999 32ZM 23.235 32L 22.575 32L 22.625 26L 20.325 32L 19.865 32L 17.515 26C 17.5683 29.92 17.595 31.92 17.595 32L 16.935 32L 16.935 24.94L 17.725 24.94L 20.115 30.93L 22.405 24.94L 23.235 24.94L 23.235 32ZM 29.9448 32L 29.2748 32L 29.2748 24.94L 29.9448 24.94L 29.9448 32ZM 40.02 25.53L 37.79 25.53L 37.79 32L 37.12 32L 37.12 25.53L 34.9 25.53L 34.9 24.94L 40.02 24.94L 40.02 25.53ZM 49.8399 32L 44.9799 32L 44.9799 24.94L 49.5899 24.94L 49.5899 25.55L 45.6499 25.55L 45.6499 28.07L 49.2199 28.07L 49.2199 28.69L 45.6499 28.69L 45.6499 31.38L 49.8399 31.38L 49.8399 32ZM 55.435 24.94L 57.625 24.94C 57.9183 24.94 58.1517 24.9467 58.325 24.96C 58.4983 24.9733 58.695 25.0033 58.915 25.05C 59.135 25.0967 59.335 25.1767 59.515 25.29C 59.7017 25.3967 59.8817 25.54 60.055 25.72C 60.6883 26.3867 61.005 27.2967 61.005 28.45C 61.005 29.5833 60.695 30.49 60.075 31.17C 59.8017 31.47 59.4983 31.6833 59.165 31.81C 58.945 31.8967 58.7083 31.95 58.455 31.97C 58.2083 31.99 57.815 32 57.275 32L 55.435 32L 55.435 24.94ZM 56.115 25.55L 56.115 31.4L 57.175 31.4C 58.1217 31.4 58.7483 31.3267 59.055 31.18C 59.4883 30.98 59.8083 30.62 60.015 30.1C 60.2217 29.58 60.325 29.0367 60.325 28.47C 60.325 28.2633 60.305 28.04 60.265 27.8C 60.225 27.5533 60.1583 27.2867 60.065 27C 59.9717 26.7067 59.825 26.44 59.625 26.2C 59.425 25.96 59.185 25.79 58.905 25.69C 58.645 25.5967 58.1283 25.55 57.355 25.55L 56.115 25.55Z"/>
</defs>
</svg>
