<svg width="647" height="624" viewBox="0 0 647 624" version="1.1" xmlns="http://www.w3.org/2000/svg" xmlns:xlink="http://www.w3.org/1999/xlink">
<title>Group 11</title>
<desc>Created using Figma</desc>
<g id="Canvas" transform="translate(314 -1429)">
<g id="Group 11">
<g id="Rectangle">
<mask id="mask0_outline_ins">
<use xlink:href="#path0_fill" fill="white" transform="matrix(0.897872 -0.440257 0.440257 0.897872 -314 1876.71)"/>
</mask>
<g mask="url(#mask0_outline_ins)">
<use xlink:href="#path1_stroke_2x" transform="matrix(0.897872 -0.440257 0.440257 0.897872 -314 1876.71)" fill="#FFFFFF" fill-opacity="0.2"/>
</g>
</g>
<g id="Rectangle">
<mask id="mask1_outline_ins">
<use xlink:href="#path0_fill" fill="white" transform="matrix(0.897872 -0.440257 0.440257 0.897872 -299 1811.71)"/>
</mask>
<g mask="url(#mask1_outline_ins)">
<use xlink:href="#path1_stroke_2x" transform="matrix(0.897872 -0.440257 0.440257 0.897872 -299 1811.71)" fill="#FFFFFF" fill-opacity="0.2"/>
</g>
</g>
<g id="Rectangle">
<mask id="mask2_outline_ins">
<use xlink:href="#path0_fill" fill="white" transform="matrix(0.897872 -0.440257 0.440257 0.897872 -284 1746.71)"/>
</mask>
<g mask="url(#mask2_outline_ins)">
<use xlink:href="#path1_stroke_2x" transform="matrix(0.897872 -0.440257 0.440257 0.897872 -284 1746.71)" fill="#FFFFFF" fill-opacity="0.2"/>
</g>
</g>
<g id="Rectangle">
<mask id="mask3_outline_ins">
<use xlink:href="#path0_fill" fill="white" transform="matrix(0.897872 -0.440257 0.440257 0.897872 -269 1681.71)"/>
</mask>
<g mask="url(#mask3_outline_ins)">
<use xlink:href="#path1_stroke_2x" transform="matrix(0.897872 -0.440257 0.440257 0.897872 -269 1681.71)" fill="#FFFFFF" fill-opacity="0.2"/>
</g>
</g>
</g>
</g>
<defs>
<path id="path0_fill" d="M 0 0L 574 0L 574 196L 0 196L 0 0Z"/>
<path id="path1_stroke_2x" d="M 0 0L 0 -1L -1 -1L -1 0L 0 0ZM 574 0L 575 0L 575 -1L 574 -1L 574 0ZM 574 196L 574 197L 575 197L 575 196L 574 196ZM 0 196L -1 196L -1 197L 0 197L 0 196ZM 0 1L 574 1L 574 -1L 0 -1L 0 1ZM 573 0L 573 196L 575 196L 575 0L 573 0ZM 574 195L 0 195L 0 197L 574 197L 574 195ZM 1 196L 1 0L -1 0L -1 196L 1 196Z"/>
</defs>
</svg>
