<svg width="27" height="36" viewBox="0 0 27 36" version="1.1" xmlns="http://www.w3.org/2000/svg" xmlns:xlink="http://www.w3.org/1999/xlink">
<title>Group</title>
<desc>Created using Figma</desc>
<g id="Canvas" transform="translate(548 -923)">
<g id="Group">
<g id="Vector">
<use xlink:href="#path0_fill" transform="translate(-537.875 923)" fill="#FFFFFF"/>
</g>
<g id="Vector">
<use xlink:href="#path1_fill" transform="translate(-548 925.25)" fill="#FFFFFF"/>
</g>
</g>
</g>
<defs>
<path id="path0_fill" d="M 1.125 9L 5.625 9C 6.24628 9 6.75 8.49628 6.75 7.875L 6.75 3.375C 6.75 1.51088 5.23884 0 3.375 0C 1.51116 0 0 1.51088 0 3.375L 0 7.875C 0 8.49628 0.503719 9 1.125 9ZM 3.375 2.25C 3.99628 2.25 4.5 2.75358 4.5 3.375C 4.5 3.99628 3.99628 4.5 3.375 4.5C 2.75372 4.5 2.25 3.99628 2.25 3.375C 2.25 2.75358 2.75372 2.25 3.375 2.25Z"/>
<path id="path1_fill" d="M 24.75 0L 19.125 0L 19.125 6.75C 19.125 7.99256 18.1176 9 16.875 9L 10.125 9C 8.88244 9 7.875 7.99256 7.875 6.75L 7.875 0L 2.25 0C 1.00744 0 0 1.0073 0 2.25L 0 31.5C 0 32.7426 1.00744 33.75 2.25 33.75L 24.75 33.75C 25.9926 33.75 27 32.7426 27 31.5L 27 2.25C 27 1.0073 25.9926 0 24.75 0ZM 7.875 28.125C 7.25372 28.125 6.75 27.6213 6.75 27C 6.75 26.3787 7.25372 25.875 7.875 25.875C 8.49628 25.875 9 26.3787 9 27C 9 27.6213 8.49628 28.125 7.875 28.125ZM 7.875 23.625C 7.25372 23.625 6.75 23.1213 6.75 22.5C 6.75 21.8787 7.25372 21.375 7.875 21.375C 8.49628 21.375 9 21.8787 9 22.5C 9 23.1213 8.49628 23.625 7.875 23.625ZM 7.875 19.125C 7.25372 19.125 6.75 18.6213 6.75 18C 6.75 17.3787 7.25372 16.875 7.875 16.875C 8.49628 16.875 9 17.3787 9 18C 9 18.6213 8.49628 19.125 7.875 19.125ZM 7.875 14.625C 7.25372 14.625 6.75 14.1213 6.75 13.5C 6.75 12.8787 7.25372 12.375 7.875 12.375C 8.49628 12.375 9 12.8787 9 13.5C 9 14.1213 8.49628 14.625 7.875 14.625ZM 19.125 28.125L 12.375 28.125C 11.7537 28.125 11.25 27.6213 11.25 27C 11.25 26.3787 11.7537 25.875 12.375 25.875L 19.125 25.875C 19.7463 25.875 20.25 26.3787 20.25 27C 20.25 27.6213 19.7463 28.125 19.125 28.125ZM 19.125 23.625L 12.375 23.625C 11.7537 23.625 11.25 23.1213 11.25 22.5C 11.25 21.8787 11.7537 21.375 12.375 21.375L 19.125 21.375C 19.7463 21.375 20.25 21.8787 20.25 22.5C 20.25 23.1213 19.7463 23.625 19.125 23.625ZM 19.125 19.125L 12.375 19.125C 11.7537 19.125 11.25 18.6213 11.25 18C 11.25 17.3787 11.7537 16.875 12.375 16.875L 19.125 16.875C 19.7463 16.875 20.25 17.3787 20.25 18C 20.25 18.6213 19.7463 19.125 19.125 19.125ZM 19.125 14.625L 12.375 14.625C 11.7537 14.625 11.25 14.1213 11.25 13.5C 11.25 12.8787 11.7537 12.375 12.375 12.375L 19.125 12.375C 19.7463 12.375 20.25 12.8787 20.25 13.5C 20.25 14.1213 19.7463 14.625 19.125 14.625Z"/>
</defs>
</svg>
