<svg width="49" height="33" viewBox="0 0 49 33" version="1.1" xmlns="http://www.w3.org/2000/svg" xmlns:xlink="http://www.w3.org/1999/xlink">
<title>Group</title>
<desc>Created using Figma</desc>
<g id="Canvas" transform="translate(557 -1173)">
<g id="Group">
<g id="Group">
<g id="Vector">
<use xlink:href="#path0_fill" transform="translate(-526.484 1173)" fill="#FFFFFF"/>
</g>
<g id="Vector">
<use xlink:href="#path1_fill" transform="translate(-517.585 1177.62)" fill="#FFFFFF"/>
</g>
<g id="Vector">
<use xlink:href="#path2_fill" transform="translate(-513.902 1188.86)" fill="#FFFFFF"/>
</g>
<g id="Vector">
<use xlink:href="#path3_fill" transform="translate(-517.585 1197.63)" fill="#FFFFFF"/>
</g>
<g id="Vector">
<use xlink:href="#path4_fill" transform="translate(-537.853 1177.62)" fill="#FFFFFF"/>
</g>
<g id="Vector">
<use xlink:href="#path5_fill" transform="translate(-557 1184.54)" fill="#FFFFFF"/>
</g>
<g id="Vector">
<use xlink:href="#path6_fill" transform="translate(-532.34 1181.47)" fill="#FFFFFF"/>
</g>
</g>
</g>
</g>
<defs>
<path id="path0_fill" d="M 1.18954 5.81299C 1.83007 5.76793 2.37909 5.27225 2.37909 4.64138L 2.37909 1.17161C 2.37909 0.540744 1.83007 6.87591e-08 1.18954 6.87591e-08C 0.549021 6.87591e-08 -1.39623e-06 0.540744 -1.39623e-06 1.17161L -1.39623e-06 4.64138C -1.39623e-06 5.27225 0.549021 5.81299 1.18954 5.81299Z"/>
<path id="path1_fill" d="M 1.9902 4.4386L 4.50654 1.9602C 4.96405 1.50958 4.96405 0.788585 4.50654 0.337965C 4.04902 -0.112655 3.31699 -0.112655 2.85948 0.337965L 0.343138 2.81637C -0.114378 3.26699 -0.114378 3.98798 0.343138 4.4386C 0.800654 4.88922 1.53268 4.88922 1.9902 4.4386Z"/>
<path id="path2_fill" d="M 4.71242 4.12555e-07L 1.18954 4.12555e-07C 0.549021 4.12555e-07 -1.39623e-06 0.540743 -1.39623e-06 1.17161C -1.39623e-06 1.80248 0.549021 2.34322 1.18954 2.34322L 4.71242 2.34322C 5.35294 2.34322 5.90196 1.80248 5.90196 1.17161C 5.90196 0.495681 5.35294 4.12555e-07 4.71242 4.12555e-07Z"/>
<path id="path3_fill" d="M 1.9902 0.337964C 1.53268 -0.112656 0.800654 -0.112656 0.343138 0.337964C -0.114378 0.788584 -0.114378 1.50957 0.343138 1.96019L 2.85948 4.4386C 3.31699 4.88922 4.04902 4.88922 4.50654 4.4386C 4.96405 3.98798 4.96405 3.26699 4.50654 2.81637L 1.9902 0.337964Z"/>
<path id="path4_fill" d="M 2.85948 4.4386C 3.31699 4.88922 4.04902 4.88922 4.50654 4.4386C 4.96405 3.98798 4.96405 3.26699 4.50654 2.81637L 1.9902 0.337965C 1.53268 -0.112655 0.800653 -0.112655 0.343137 0.337965C -0.11438 0.788585 -0.11438 1.50958 0.343137 1.9602L 2.85948 4.4386Z"/>
<path id="path5_fill" d="M 29.098 7.02967C 28.0458 7.02967 26.9935 7.25498 26.0784 7.66054C 25.1176 8.06609 24.2941 8.69696 23.6078 9.46301C 23.1961 9.9587 22.4183 10.0038 21.9608 9.55314C 21.4575 9.14758 21.4118 8.38153 21.8693 7.93091C 22.7843 6.89448 23.9281 6.08337 25.1634 5.54262C 25.3922 5.4525 25.6667 5.31731 25.8954 5.22719C 25.1634 3.83027 24.0654 2.65866 22.7843 1.75742C 21.1373 0.630868 19.2157 -6.18832e-07 17.1111 -6.18832e-07C 14.6405 -6.18832e-07 12.3987 0.901239 10.6601 2.34322C 8.92157 3.83027 7.68627 5.90312 7.32026 8.2914C 7.27451 8.6519 7.0915 8.92227 6.77124 9.10252C 6.58824 9.23771 6.35948 9.28277 6.13072 9.28277C 4.43791 9.28277 2.88235 9.9587 1.78431 11.0852C 0.686275 12.1667 0 13.6988 0 15.3661C 0 17.0334 0.686275 18.5655 1.83007 19.647C 2.9281 20.7285 4.48366 21.4495 6.17647 21.4495L 29.1895 21.4495C 31.1569 21.5847 32.9869 20.7736 34.3137 19.4217C 35.6405 18.1149 36.4641 16.3124 36.4641 14.2846C 36.4641 12.2569 35.6405 10.4544 34.3137 9.14758C 32.9869 7.84078 31.1569 7.02967 29.098 7.02967Z"/>
<path id="path6_fill" d="M 15.6928 8.56178C 15.6928 6.21855 14.732 4.05558 13.1307 2.52347C 11.5752 0.991364 9.37908 -2.75036e-07 7 -2.75036e-07C 5.39869 -2.75036e-07 3.84314 0.45062 2.51634 1.21667C 1.55556 1.80248 0.686275 2.56853 6.98115e-07 3.46977C 0.640524 3.96545 1.18954 4.5062 1.69281 5.092C 2.42484 5.90312 3.01961 6.84942 3.52288 7.88585C 3.79739 7.84078 4.11765 7.84079 4.39216 7.84079C 7.0915 7.84079 9.51634 8.92227 11.2549 10.6346C 11.6209 10.9951 11.9869 11.4457 12.3072 11.8513C 12.8105 12.5272 13.2222 13.2933 13.4967 14.1044C 14.183 13.4735 14.6863 12.7075 15.0065 11.8964C 15.4641 10.8599 15.6928 9.68833 15.6928 8.56178Z"/>
</defs>
</svg>
